<?xml version="1.0" encoding="UTF-8"?>
<svg id="Calque_1" data-name="Calque 1" xmlns="http://www.w3.org/2000/svg" viewBox="0 0 100 100">
  <defs>
    <style>
      .cls-1 {
        fill: #fbf7f3;
      }
    </style>
  </defs>
  <path class="cls-1" d="m50,98.57C23.22,98.57,1.43,76.78,1.43,50S23.22,1.43,50,1.43s48.57,21.79,48.57,48.57-21.79,48.57-48.57,48.57M50,.5C22.71.5.5,22.71.5,50s22.21,49.5,49.5,49.5,49.5-22.21,49.5-49.5S77.3.5,50,.5"/>
  <path class="cls-1" d="m25.88,17.14c.17.22.3.47.46.7.1.14.18.29.28.44.11.16.22.33.33.5.1.14.22.32.41.22.11-.06.25-.2.23-.34-.02-.18-.22-.35-.32-.5-.09-.13-.18-.26-.25-.4-.1-.2-.16-.45-.1-.67.04-.19.25-.35.41-.48.12-.09.82-.55.92-.63.18-.15.1-.46-.12-.56-.1-.04-.17,0-.25.06-.11.09-.86.6-.97.67-.26.18-.59.35-.83.09-.26-.28-.33-.5-.35-.72-.03-.26.33-.52.56-.68.1-.06.19-.13.29-.2.16-.11.32-.21.48-.32.14-.09.44-.22.42-.43-.03-.17-.22-.27-.39-.27h.02c-.14,0-.28.12-.38.19-.15.11-.29.21-.44.31-.18.12-.36.24-.55.37-.17.11-.33.23-.5.33-.17.12-.34.21-.38.43-.08.39.23.71.43,1,.21.3.36.62.58.9"/>
  <path class="cls-1" d="m31.49,14.47c-.13.06-.33.15-.46.07-.18-.11-.19-.39-.24-.57-.06-.19-.1-.42-.13-.63-.02-.16-.03-.41.13-.5.31-.18.64.29.82.45.06.05.13.1.18.16.06.07.12.12.19.19.09.08.19.17.17.3h0c-.04.26-.46.44-.67.53m2.15-.04c-.07-.06-.13-.13-.2-.2-.15-.16-.31-.31-.46-.47-.33-.33-.67-.64-1.02-.96-.32-.31-.65-.58-1.02-.83-.09-.06-.18-.12-.27-.19-.06-.04-.12-.1-.2-.12-.12-.03-.31.07-.39.16-.18.18-.13.5-.1.72.14,1.01.27,2.02.46,3.03.03.18.09.35.12.54.02.16-.02.54.2.57.13.02.34-.08.39-.2.04-.1,0-.23-.02-.32-.02-.12-.06-.23-.07-.34-.01-.18-.07-.4.07-.57.11-.13.25-.18.39-.27.12-.07.24-.13.36-.18.25-.09.5-.33.79-.28.15.02.29.14.4.24.09.08.21.17.28.27.06.08.14.18.25.2.15.02.36-.09.42-.23.06-.15-.08-.3-.16-.4-.03-.05-.17-.13-.22-.17"/>
  <path class="cls-1" d="m35.41,13.7c.23.13.47.2.73.25.18.04.34.02.52.02.1,0,.19,0,.29,0,.11-.02.19-.06.28-.1.27-.12.53-.18.76-.38.16-.14.31-.33.42-.51.07-.12.17-.3.16-.45,0-.15-.16-.26-.3-.27h0c-.3-.05-.39.39-.51.58-.21.32-.58.51-.94.6-.51.13-1.13-.23-1.45-.6-.51-.58-.69-1.58-.27-2.27.19-.31.47-.56.82-.68.34-.12.63-.11.96.02.12.05.24.13.37.05.11-.06.15-.18.13-.3-.05-.33-.47-.4-.73-.43-.39-.04-.77.03-1.12.19-.25.11-.44.28-.63.48-.52.54-.76,1.29-.65,2.04.11.69.52,1.41,1.14,1.77"/>
  <polygon class="cls-1" points="40.38 12.79 40.38 12.79 40.37 12.79 40.38 12.79"/>
  <path class="cls-1" d="m39.36,8.98c.03.13.08.33.11.46.03.11.05.22.08.31.07.19.08.4.15.59.1.25.14.51.2.77.03.13.07.26.1.39.05.16.13.47.16.6.02.08.02.16.04.24.09.14-.02.38.17.46.15.05.38,0,.46-.15.07-.14,0-.3-.06-.44-.05-.13-.08-.25-.11-.38-.05-.28-.11-.55-.17-.83-.07-.31-.17-.6-.24-.91-.06-.25-.1-.52-.17-.77-.04-.16-.1-.38-.14-.53-.03-.15-.03-.3-.11-.43-.12-.22-.58-.17-.58.11,0,.11.04.22.07.32.02.07.03.13.04.2"/>
  <path class="cls-1" d="m41.86,8.5c.01.1,0,.2.03.3.02.1.04.2.06.3.02.15.03.29.05.44.03.24.07.49.11.73.08.45.11.9.2,1.35.04.18.04.44.18.56.18.17.52.07.74.02.4-.07.79-.15,1.19-.21.18-.02.37-.05.55-.07.15-.02.38-.01.49-.13.09-.08.04-.3,0-.39h-.02c-.06-.12-.19-.12-.3-.11-.21.03-.43.06-.64.09-.37.05-.74.14-1.11,0-.25-.1-.46-.29-.55-.55-.06-.18-.06-.38-.1-.56-.05-.23-.09-.45-.12-.69-.05-.57-.07-1.17-.22-1.72-.02-.09-.05-.18-.14-.22-.1-.05-.28-.06-.37.01-.1.08-.1.24-.09.35.02.16.04.32.06.48"/>
  <polygon class="cls-1" points="47.1 11.67 47.1 11.67 47.09 11.67 47.1 11.67"/>
  <path class="cls-1" d="m46.77,7.73c0,.13.02.34.03.47,0,.11,0,.22.02.32.03.2,0,.4.05.6.05.26.04.53.06.79.01.14.02.27.03.41.02.17.05.48.06.62,0,.08-.01.16,0,.24.06.15-.09.37.08.48.13.07.38.06.48-.06.1-.13.05-.3.02-.45-.02-.13-.04-.26-.04-.4,0-.28-.01-.57-.03-.85-.02-.32-.06-.62-.08-.94-.02-.26-.01-.53-.03-.79-.01-.16-.03-.39-.04-.55,0-.15.02-.3-.03-.44-.08-.23-.55-.26-.59,0-.02.1,0,.23,0,.33,0,.07,0,.13,0,.2"/>
  <path class="cls-1" d="m50.22,11.36c.15.1.31.15.48.22.09.04.17.07.27.1.11.02.2.01.3,0,.29,0,.56.02.85-.08.2-.07.41-.19.58-.32.11-.08.27-.22.31-.36.04-.14-.05-.3-.18-.36h0c-.27-.15-.5.22-.69.35-.31.22-.72.26-1.09.22-.52-.06-.97-.63-1.13-1.09-.26-.73-.06-1.73.58-2.21.29-.22.65-.35,1.01-.33.36.02.62.13.88.37.1.09.18.21.33.18.12-.02.21-.11.23-.23.08-.32-.29-.55-.53-.67-.34-.18-.73-.25-1.11-.23-.28.01-.51.1-.76.21-.68.31-1.18.92-1.35,1.66-.15.68-.03,1.5.41,2.06.16.21.37.36.59.49"/>
  <path class="cls-1" d="m55.21,9.64c.12-.72.69-1.52,1.48-1.55h.02c.1-.01.2.01.29.02.1.01.18,0,.27.02.17.03.33.14.46.23.27.2.51.54.58.87.08.36.06.75,0,1.11-.05.33-.25.61-.51.81-.53.43-1.29.62-1.89.22-.27-.17-.53-.44-.65-.74-.12-.3-.12-.68-.04-.99m-.52,1.26c.04.11.11.21.19.3.28.35.54.74,1,.88.46.14.96.2,1.43.08.21-.05.43-.14.59-.28.1-.08.2-.12.3-.18.08-.05.14-.13.2-.2.15-.21.31-.38.41-.62.09-.23.18-.47.2-.72.03-.25,0-.52-.03-.77-.04-.23-.08-.46-.2-.66-.26-.4-.51-.79-.93-1.03-.42-.25-.96-.29-1.43-.19-.2.04-.45.09-.64.19-.11.06-.19.16-.29.23-.08.06-.17.12-.23.2-.18.17-.33.43-.44.67-.14.26-.15.56-.2.84-.05.3-.07.59,0,.89.03.11.02.24.07.36"/>
  <path class="cls-1" d="m61.7,10.89c.09-.18.22-.37.35-.54.1-.13.27-.31.45-.27.35.09.25.66.27.9,0,.08.02.16.02.24,0,.09,0,.18,0,.27,0,.11.01.26-.09.34h0c-.21.15-.63-.01-.85-.09-.13-.05-.34-.13-.38-.27-.05-.21.14-.41.23-.58m-1.5,2.03c.1-.04.16-.16.21-.24.07-.1.12-.2.19-.29.11-.14.23-.33.44-.35.17-.02.3.05.47.08.13.04.26.08.38.13.24.11.58.12.76.35.09.12.11.31.12.45.01.12.03.27.01.39-.01.1-.03.22.03.31.09.12.32.19.46.13.15-.06.15-.26.17-.39.02-.06-.03-.21-.03-.27,0-.09,0-.18,0-.28,0-.22,0-.44,0-.66,0-.46-.03-.93-.04-1.4-.01-.45-.06-.87-.14-1.31-.02-.11-.05-.21-.06-.32-.01-.08-.01-.16-.05-.23-.06-.11-.27-.16-.39-.16-.25,0-.44.27-.58.44-.62.81-1.23,1.62-1.8,2.47-.11.15-.19.32-.3.46-.1.13-.39.37-.26.55.08.11.29.18.42.13"/>
  <path class="cls-1" d="m67.18,15.61c.21.02.45-.01.66-.06.13-.03.33-.1.43-.21.1-.11.07-.3-.02-.4h0c-.19-.25-.56,0-.78.05-.37.08-.77-.04-1.09-.23-.46-.26-.64-.96-.61-1.45.05-.77.63-1.61,1.41-1.8.35-.09.74-.07,1.06.09.32.16.52.37.66.69.05.12.08.26.23.3.12.03.24-.02.31-.12.2-.26-.05-.62-.22-.82-.25-.3-.57-.52-.93-.66-.26-.1-.51-.11-.78-.1-.75.02-1.45.38-1.9.99-.41.57-.63,1.37-.44,2.06.07.25.2.47.34.69.1.15.23.26.36.39.06.07.13.14.21.19.09.06.17.09.27.13.27.1.51.24.81.26"/>
  <path class="cls-1" d="m69.41,16.83c.13.09.26.17.41.05.14-.12.22-.31.32-.46.1-.16.21-.32.32-.49.02-.03.04-.07.07-.1.12-.17.36-.22.56-.19.22.04.41.2.59.32.31.2.76.41.78.84.01.22-.15.38-.24.56-.08.15-.11.22-.21.35-.05.07-.1.15-.16.22-.06.08-.16.15-.17.27.01.18.28.34.44.33.13-.01.19-.13.25-.24.07-.11.14-.24.23-.33.12-.16.21-.26.3-.44.46-.73.89-1.47,1.36-2.18.13-.19.46-.54.26-.77-.07-.09-.22-.16-.33-.14-.14.02-.23.22-.3.33-.12.22-.26.44-.4.65-.1.15-.19.35-.35.45-.13.08-.28.08-.43.03-.14-.04-.26-.13-.4-.21-.16-.09-.32-.19-.47-.29-.16-.11-.31-.2-.38-.36-.08-.17-.08-.36,0-.52.17-.24.31-.51.47-.75.07-.1.16-.22.21-.33.08-.18-.03-.33-.18-.41-.2-.11-.29-.04-.41.12-.11.17-.22.34-.32.52-.05.08-.11.14-.15.23-.05.11-.13.2-.2.29-.12.19-.25.37-.4.55-.2.25-.36.55-.54.82-.1.14-.18.27-.27.41-.08.12-.16.24-.24.36-.12.18-.25.36-.03.52"/>
  <path class="cls-1" d="m77.04,20.3s.02.02.02.02l.29.27c.32.27.34.33.72.69l.17.16c.05.04.13.11.17.16.04.04.1.07.16.09.07.02.13.02.21-.02.02-.02.09-.09.1-.11.03-.06.04-.11.03-.18-.02-.1-.08-.16-.17-.21-.04-.03-.08-.07-.11-.1-.04-.05-.09-.09-.15-.15-1.11-1.05-.33-.29-.8-.73-.11-.11-.35-.34-.48-.45-.02-.02-.05-.04-.08-.04-.1-.05-.19-.02-.27.04-.05.05-.11.12-.11.18.01.09.08.16.13.23.05.06.1.1.15.14"/>
  <path class="cls-1" d="m82.48,26.28c.09-.19.36-.24.53-.32.18-.09.4-.16.61-.22.15-.04.4-.09.52.06.22.28-.2.68-.34.88-.04.07-.08.14-.13.2-.05.07-.1.14-.16.22-.06.09-.15.21-.28.21h0c-.25,0-.49-.39-.61-.58-.08-.12-.19-.31-.13-.45m-1.9.39c.1.03.22-.03.32-.07.11-.04.22-.09.33-.12.18-.04.38-.12.57-.01.14.09.21.22.32.35.08.11.16.22.23.33.13.24.39.45.39.74,0,.15-.1.31-.18.43-.07.11-.14.23-.23.32-.07.07-.16.16-.16.27,0,.15.14.34.29.38.15.04.28-.12.37-.21.05-.04.11-.19.14-.24.05-.08.11-.15.17-.23.13-.17.27-.34.4-.52.28-.37.54-.76.81-1.14.26-.36.48-.73.68-1.13.05-.1.09-.2.15-.29.04-.07.09-.13.1-.22.02-.13-.11-.29-.21-.36-.2-.16-.52-.06-.73,0-.98.27-1.96.54-2.94.87-.17.06-.34.14-.52.19-.16.04-.54.06-.54.28,0,.14.12.33.25.36"/>
  <path class="cls-1" d="m83.93,30.5c-.1.24-.13.5-.14.75-.01.18.02.35.05.52.01.09.02.19.05.28.03.11.08.18.14.27.15.25.26.5.48.7.16.14.37.26.56.35.13.05.33.13.47.1.14-.03.24-.19.23-.33h0c0-.31-.45-.33-.65-.43-.34-.16-.58-.5-.72-.84-.2-.49.07-1.15.39-1.53.51-.58,1.48-.9,2.21-.58.33.14.63.39.79.72.16.32.19.61.11.96-.03.13-.09.25,0,.38.07.1.2.13.31.09.32-.09.34-.52.32-.79-.01-.39-.14-.76-.34-1.08-.15-.24-.34-.39-.56-.56-.61-.44-1.39-.58-2.11-.36-.67.2-1.33.7-1.6,1.37"/>
  <path class="cls-1" d="m86.24,35.26c-.13.23-.19.47-.24.73-.03.18-.02.35-.02.53,0,.09,0,.19.01.28.02.11.06.19.1.29.12.27.19.53.39.76.14.16.33.31.51.42.12.07.31.17.45.16.15-.01.26-.16.27-.3h0c.04-.31-.4-.39-.59-.51-.32-.21-.51-.57-.61-.93-.14-.51.22-1.13.59-1.46.58-.52,1.58-.69,2.26-.28.31.19.57.47.69.82.12.34.11.63-.02.96-.05.12-.13.24-.05.37.06.11.19.16.3.13.33-.05.4-.47.43-.74.04-.39-.04-.77-.2-1.12-.12-.25-.28-.43-.48-.63-.54-.52-1.3-.76-2.04-.64-.69.11-1.41.52-1.77,1.15"/>
  <path class="cls-1" d="m91.43,40.79h.02c.04.1.05.2.08.3.03.09.06.17.08.26.04.17,0,.35-.05.51-.09.33-.31.67-.59.86-.31.21-.67.33-1.03.41-.33.08-.66,0-.95-.18-.59-.33-1.05-.97-.9-1.68.06-.32.22-.65.45-.88.23-.22.58-.36.91-.4.71-.15,1.66.08,1.99.8m-2.21-1.35c-.3.06-.57.15-.82.33-.1.07-.22.11-.31.2-.09.07-.16.19-.21.29-.23.39-.49.78-.45,1.25.04.47.17.96.46,1.36.13.18.29.35.48.45.11.06.18.15.27.21.07.06.17.09.26.11.25.06.47.15.73.16.25,0,.51-.01.75-.08.24-.07.48-.2.7-.32.19-.12.4-.24.54-.42.28-.39.55-.76.62-1.25.08-.48-.08-1-.35-1.4-.11-.18-.25-.39-.42-.52-.1-.08-.22-.12-.32-.19-.09-.05-.17-.11-.27-.14-.23-.1-.52-.15-.79-.16-.29-.04-.57.07-.85.13"/>
  <path class="cls-1" d="m93.08,49.14c-.09-.21-.34-.28-.52-.38-.19-.11-.39-.24-.57-.36-.16-.11-.32-.22-.48-.34-.15-.12-.4-.23-.41-.45,0-.21.23-.41.36-.54.13-.12.24-.26.38-.37.25-.22.51-.4.77-.59.15-.11.3-.25.27-.46-.04-.26-.28-.29-.5-.27-.19.01-.37.02-.56.01-.26-.02-.52.05-.77.06-.14,0-.28.02-.42.02-.15,0-.29-.02-.44,0-.16.02-.32.03-.48.04-.18.01-.36.02-.54.03-.13,0-.41.02-.54.02s-.28-.02-.37.09c-.11.13-.05.43.1.51.19.1.63-.02.84-.03.23,0,.47-.03.71-.03.17,0,.34-.02.52-.02.11,0,.23-.03.35,0,.22.05.36.26.3.47-.04.14-.14.26-.25.35-.1.08-.17.16-.24.26-.12.16-.26.24-.27.46-.01.26.19.38.39.52.13.09.27.19.39.29.13.11.32.27.21.45-.1.17-.34.22-.53.22-.11,0-.21.02-.32.01-.13,0-.26.02-.4.02-.34-.01-.85.02-1.19.05-.14,0-.34-.02-.42.11-.12.18,0,.46.19.51.17.04.52-.02.69-.02.18,0,.35,0,.53,0,.36,0,.72-.02,1.08-.04.29-.02.58-.04.87-.04.21,0,.41,0,.62-.03.14-.01.3-.06.44-.04.07.03.17-.04.2-.09h.01c.06-.11.06-.27.01-.38"/>
  <path class="cls-1" d="m92.4,53.74c-.02.06-.08.22-.13.33-.09.14-.22.31-.37.39-.16.08-.41.07-.58.07-.32,0-.62-.09-.84-.34h0c-.28-.31-.22-.56-.21-.87,0-.16.03-.42.05-.57.02-.22.19-.52.77-.52.24.02.46.04.67.06.43.04.65.39.69.8.02.22.01.45-.06.66m.02-1.97c-.49-.05-.99-.08-1.48-.13-.53-.05-1.07-.06-1.6-.13-.24-.03-.48-.06-.72-.07-.2-.01-.28.16-.25.35.04.22.23.2.4.22.18.03.35.06.53.11.45.22.44.56.43.71,0,.18-.04.6-.05.77-.01.18,0,.47.18.76.12.2.29.39.57.55.19.11.43.18.65.2.21.04.39.01.6-.01.17-.06.39-.1.52-.19.09-.07.23-.14.3-.22.01-.01.02-.03.03-.04.03-.04.07-.09.1-.14.19-.25.27-.59.31-.89.03-.27.06-.54.09-.8.01-.15.03-.31.02-.46,0-.11,0-.25-.06-.35-.14-.21-.35-.21-.57-.23"/>
  <path class="cls-1" d="m90.13,58.68c-.08.01-.16.04-.24.04-.09,0-.18.02-.27.03-.11.02-.25.04-.34-.06h0c-.17-.19-.05-.63,0-.85.04-.14.09-.35.23-.4.2-.07.42.1.6.17.19.07.4.18.57.3.13.08.34.23.32.41-.05.35-.63.32-.87.36m1.61-.8c-.87-.53-1.74-1.06-2.65-1.54-.16-.09-.33-.15-.49-.24-.14-.08-.41-.35-.57-.2-.1.09-.15.31-.09.43.05.09.18.14.26.18.11.06.21.1.31.16.15.1.35.2.4.41.03.17-.01.31-.03.48-.02.13-.05.26-.09.39-.09.26-.06.59-.27.79-.11.1-.3.14-.44.16-.12.02-.27.06-.39.05-.1,0-.22,0-.31.07-.11.1-.15.34-.08.47.08.14.28.13.41.13.06.01.21-.05.27-.06.09-.02.18-.02.28-.03.22-.02.44-.04.65-.07.46-.05.92-.13,1.39-.19.45-.06.86-.15,1.29-.28.1-.03.2-.07.31-.09.07-.02.16-.03.22-.08.11-.07.13-.28.12-.4-.02-.25-.31-.42-.5-.53"/>
  <path class="cls-1" d="m90.5,62.12c-.08-.13-.2-.23-.31-.34-.11-.12-.23-.29-.39-.36-.15-.07-.29-.16-.44-.24-.17-.09-.38-.12-.56-.15-.22-.03-.45-.11-.67-.11-.21,0-.44.06-.62.14-.22.1-.41.22-.59.37-.13.11-.28.23-.38.37-.29.42-.43.99-.32,1.49.09.41.31.8.65,1.06.28.22.68.35,1.02.41.07.02.17,0,.23-.02.14-.05.2-.12.24-.24.05-.12.11-.23.16-.36.07-.17.18-.38.18-.56,0-.16-.15-.31-.31-.3-.12,0-.18.07-.21.18-.05.18-.11.38-.28.49-.29.18-.69,0-.9-.23-.15-.17-.21-.39-.26-.6-.05-.22-.07-.46.04-.67.09-.17.18-.31.3-.46.06-.08.13-.13.22-.17.11-.05.21-.12.31-.17.1-.04.22-.11.33-.13.1-.01.2,0,.29.01.21.02.4.07.6.12.19.05.35.09.51.2.1.07.22.12.31.2.31.3.56.72.55,1.16,0,.24-.04.45-.15.67-.11.22-.3.43-.53.53-.2.09-.56.18-.49.47.05.2.24.27.42.22.14-.04.26-.13.4-.2.12-.07.24-.13.35-.22.11-.09.17-.19.26-.3.05-.07.11-.13.15-.2.15-.27.21-.62.2-.93,0-.21-.05-.43-.11-.63-.04-.16-.1-.35-.19-.5"/>
  <path class="cls-1" d="m88.73,67.26c-.17-.09-.36-.16-.53-.26-.1-.06-.21-.13-.31-.19-.08-.04-.17-.08-.25-.13-.21-.13-.43-.21-.64-.3-.27-.13-.54-.27-.81-.41-.25-.12-.55-.32-.8-.43-.09-.04-.19-.05-.26.03-.08.08-.15.27-.13.38.02.09.11.14.18.18.11.05.29.13.39.2.26.15.55.29.82.41.15.07.31.15.46.22.18.09.42.23.42.46,0,.27-.38.45-.6.51-.21.05-.42.1-.63.15-.3.08-.6.17-.91.22-.25.05-.51.08-.76.09-.14,0-.29-.02-.44-.02-.08,0-.14.02-.18.07-.14.13-.19.36-.03.49.19.15.45.22.67.32.1.05.18.1.27.15.13.08.26.14.41.2.19.08.37.19.56.29.24.12.49.23.72.36.3.17.6.36.91.5l.05.02c.12.07.29.15.43.09.12-.05.18-.18.19-.3,0-.18-.15-.27-.29-.35-.21-.11-.43-.22-.64-.33-.25-.13-.5-.28-.74-.41-.14-.07-.28-.14-.41-.21-.1-.06-.2-.11-.21-.24-.03-.32.41-.35.63-.41.24-.06.48-.14.72-.19.3-.06.6-.11.9-.14.23-.03.45-.06.68-.09.17-.02.42-.02.55-.14.13-.11.2-.34.09-.49-.09-.13-.31-.22-.45-.29"/>
  <path class="cls-1" d="m85.67,72.12c-.29-.17-.53-.39-.81-.57-.33-.21-.67-.43-.99-.66-.1-.06-.17-.15-.26-.2-.06-.04-.14-.08-.19-.12-.18-.12-.36-.24-.58-.23-.29.01-.45.29-.61.5-.13.18-.22.39-.34.57-.12.17-.23.34-.35.51-.13.18-.28.37-.4.57-.09.15-.05.35.1.46.18.12.36.01.46-.14.06-.12.13-.27.23-.41.11-.13.2-.27.3-.41.14-.19.22-.42.42-.57.18-.14.47-.22.69-.12.15.07.32.18.39.32.12.23.04.46-.09.66-.11.17-.22.36-.3.54-.06.13,0,.25.1.34.12.1.29.13.4,0,.11-.12.19-.28.29-.43.11-.17.23-.35.44-.4.19-.05.39,0,.55.1.36.21.49.53.29.9-.1.19-.24.38-.36.57-.15.22-.3.44-.46.66-.07.1-.18.22-.21.33-.09.26.24.46.45.33.17-.1.27-.34.37-.49.12-.19.25-.36.38-.54.18-.22.33-.46.49-.69.16-.24.37-.46.28-.76-.1-.33-.42-.48-.69-.65"/>
  <path class="cls-1" d="m82.81,76.35c-.17-.2-.4-.33-.59-.51-.1-.1-.21-.19-.31-.29-.11-.1-.19-.22-.31-.31-.13-.1-.25-.21-.37-.31-.14-.12-.27-.24-.41-.36-.1-.08-.31-.27-.4-.36-.09-.09-.18-.21-.33-.2-.17.01-.34.27-.29.43.06.2.46.43.62.58.17.16.35.32.52.48.13.12.26.23.38.35.08.08.19.14.25.24.12.19.07.43-.12.55-.13.07-.28.08-.43.07-.12-.01-.23,0-.35.01-.19.02-.36-.01-.52.13-.2.18-.13.41-.09.64.03.16.05.33.07.49.01.17.04.41-.18.47-.19.05-.4-.09-.53-.21-.08-.07-.17-.14-.24-.22-.09-.1-.2-.17-.29-.27-.23-.25-.61-.58-.88-.81-.1-.09-.23-.25-.38-.22-.21.04-.33.32-.23.5.09.15.38.35.5.48.12.13.25.24.37.37.25.26.52.49.79.74.22.19.44.38.64.58.15.14.3.28.46.42.11.09.25.17.34.28.03.07.15.09.21.08h.01c.12-.02.23-.14.27-.25.09-.21-.04-.44-.1-.64-.06-.22-.1-.44-.15-.66-.03-.19-.07-.39-.09-.58-.02-.19-.12-.45.03-.61.14-.15.46-.13.64-.12.18,0,.35-.01.53,0,.33.02.64.08.97.13.19.03.39.04.51-.13.16-.21,0-.4-.15-.54-.14-.13-.28-.25-.41-.39"/>
  <path class="cls-1" d="m77.79,80.14c-.26-.29-.53-.6-.78-.9-.07-.09-.12-.19-.2-.26-.05-.06-.11-.12-.15-.16-.15-.16-.28-.33-.5-.38-.29-.07-.52.15-.72.32-.17.14-.32.31-.49.46-.16.13-.31.27-.48.4-.18.13-.37.28-.54.44-.12.12-.14.32-.03.47.14.17.34.11.48-.01.09-.1.2-.22.33-.33.14-.1.27-.21.4-.31.18-.15.32-.35.56-.44.21-.08.51-.09.69.08.12.11.26.26.29.42.05.25-.09.46-.26.61-.15.14-.3.29-.44.44-.09.11-.08.24,0,.36.09.13.25.21.39.11.13-.09.26-.22.39-.33.15-.13.32-.27.53-.27.2,0,.37.11.51.25.29.29.33.65.04.95-.15.15-.33.3-.5.45-.21.18-.41.34-.62.51-.09.08-.23.16-.3.26-.15.23.1.5.35.44.19-.05.35-.25.49-.37.17-.14.34-.28.51-.42.23-.17.45-.35.66-.53.21-.19.48-.34.47-.66,0-.34-.28-.58-.48-.81-.23-.24-.41-.51-.63-.77"/>
  <path class="cls-1" d="m74.34,84.01c-.06-.11-.12-.21-.18-.32-.05-.08-.11-.16-.15-.24-.11-.22-.26-.4-.4-.59-.17-.25-.33-.51-.49-.76-.15-.23-.31-.55-.47-.78-.06-.08-.14-.14-.24-.11-.11.03-.27.15-.31.26-.03.08.02.18.06.25.07.1.18.26.24.37.14.26.32.53.49.77.1.14.19.28.29.43.11.16.24.41.13.61-.14.24-.55.2-.77.13-.21-.06-.41-.13-.62-.19-.3-.09-.6-.16-.9-.27-.24-.09-.48-.19-.7-.31-.13-.07-.24-.17-.37-.24-.07-.04-.12-.06-.19-.04-.19.05-.34.21-.28.4.09.23.28.42.42.62.06.09.11.18.16.27.07.14.16.25.25.37.12.17.22.36.33.53.15.22.3.45.44.68.17.3.33.61.53.89l.03.04c.07.12.18.28.32.3.12.02.25-.06.31-.16.1-.15.01-.3-.07-.44-.13-.21-.26-.41-.39-.61-.15-.24-.28-.49-.43-.73-.08-.13-.17-.26-.25-.39-.06-.1-.11-.2-.06-.32.13-.29.53-.1.75-.03.24.07.48.12.72.2.29.1.57.22.85.33.21.09.42.18.63.26.16.07.37.19.54.16.17-.03.35-.19.33-.37-.01-.16-.16-.35-.24-.48-.1-.16-.22-.32-.32-.49"/>
  <path class="cls-1" d="m69.66,87.69c-.13-.03-.29.1-.4.15-.15.07-.29.16-.46.19-.2.04-.44.02-.6-.11-.16-.13-.19-.4-.27-.56-.13-.26-.27-.5-.37-.77-.21-.56-.51-1.16-.75-1.71-.05-.11-.1-.24-.24-.25-.09,0-.2.04-.26.1-.16.14-.06.33.01.49.11.23.23.51.33.74.11.25.2.5.31.74.14.31.29.61.39.92.08.19.2.43.19.65-.01.34-.26.5-.54.64-.22.12-.72.15-.65.5.05.23.27.32.47.22.23-.12.48-.2.72-.31.47-.23.93-.47,1.41-.67.14-.06.28-.11.41-.16.08-.03.14-.07.21-.11.07-.04.16-.05.23-.1.19-.15.1-.53-.14-.58"/>
  <path class="cls-1" d="m60.59,86.94h0s0,0,.01,0h-.01Z"/>
  <path class="cls-1" d="m61.7,90.74c-.03-.13-.08-.33-.12-.46-.03-.1-.05-.22-.09-.31-.07-.19-.09-.39-.17-.58-.1-.24-.15-.51-.22-.76-.04-.13-.07-.26-.11-.39-.05-.16-.14-.47-.18-.59-.02-.08-.02-.16-.05-.24-.09-.13.01-.39-.18-.46-.15-.04-.38.02-.45.16-.07.15.02.3.07.44.05.13.09.25.12.38.06.28.13.55.2.83.08.31.18.6.27.91.07.25.11.51.19.77.04.16.11.37.15.53.03.14.04.3.12.43.12.21.59.15.58-.13,0-.1-.05-.23-.08-.32-.02-.07-.03-.13-.04-.2"/>
  <path class="cls-1" d="m59.08,90.82c-.01-.12-.02-.24-.04-.36-.02-.09-.04-.18-.04-.28-.01-.24-.09-.47-.13-.69-.06-.3-.11-.6-.16-.89-.05-.27-.07-.63-.13-.9-.02-.1-.07-.18-.18-.2-.11-.01-.31.03-.38.12-.06.07-.05.17-.04.25.02.12.06.31.08.43.03.29.09.61.15.9.04.17.07.34.1.5.03.19.06.47-.12.61-.22.17-.58-.03-.76-.18-.17-.13-.33-.28-.5-.41-.24-.2-.49-.38-.72-.6-.19-.17-.36-.36-.52-.56-.09-.12-.16-.25-.25-.36-.04-.06-.09-.1-.16-.11-.19-.03-.4.07-.41.27-.01.25.09.49.14.73.02.11.03.21.04.31.01.15.04.29.09.44.05.2.07.41.1.62.05.26.11.53.14.79.04.34.07.69.14,1.03l.02.04c.02.13.05.33.18.4.11.06.25.04.35-.03.15-.1.13-.28.11-.44-.04-.24-.08-.48-.12-.71-.04-.28-.07-.56-.11-.84-.03-.15-.05-.3-.07-.46-.01-.11-.03-.23.07-.31.24-.21.53.12.7.26.19.16.39.3.58.46.23.2.44.42.65.64.16.16.32.33.48.49.12.12.27.32.44.36.17.04.39-.04.44-.22.05-.15-.01-.38-.04-.53-.03-.19-.08-.38-.1-.58"/>
  <path class="cls-1" d="m52.76,91.3c0,.11,0,.21-.03.33-.05.26-.17.51-.38.67-.28.22-.66.18-.96.03-.21-.11-.54-.27-.66-.5-.3-.33-.36-.79-.37-1.22h0c-.01-.42.02-.9.32-1.23.25-.26.58-.42.91-.52.29-.08.65-.05.89.14.24.21.28.51.28.82,0,.32,0,.64.01.96,0,.17,0,.35,0,.53m.59-.22c0-.23-.01-.46,0-.68.02-.31-.03-.61,0-.92.01-.16,0-.32,0-.48,0-.17.01-.42-.08-.58-.12-.18-.43-.1-.6-.09-.23,0-.47,0-.7-.02-.32-.03-.6.04-.9.13-.15.04-.25.13-.38.2-.08.04-.16.1-.23.16-.51.37-.72.96-.69,1.57-.03.37-.05.78.07,1.14v-.03c.08.23.27.46.42.65.16.22.36.32.58.48.21.15.4.25.65.3.33.07.69.11,1.02.11.15,0,.3,0,.44-.02.26-.02.41-.15.46-.4.04-.27,0-.54-.02-.8-.02-.23-.02-.48-.02-.72"/>
  <polygon class="cls-1" points="48.1 88.39 48.1 88.39 48.11 88.4 48.1 88.39"/>
  <path class="cls-1" d="m47.62,88.39c-.12.12-.09.29-.08.44,0,.13,0,.26,0,.4-.04.28-.06.56-.08.84-.02.32-.02.63-.04.94-.01.26-.06.52-.07.79-.01.16-.02.39-.03.55-.02.15-.06.29-.02.44.05.24.51.33.59.07.03-.1.03-.23.03-.33,0-.07.02-.13.02-.2.01-.13.03-.34.03-.47,0-.11.02-.22.02-.32-.01-.2.04-.4.03-.61-.02-.26.02-.53.04-.79,0-.13.02-.27.02-.4,0-.17.01-.49.02-.62,0-.08.03-.16.03-.24-.04-.15.13-.36-.02-.49-.13-.09-.37-.11-.48,0"/>
  <path class="cls-1" d="m45.12,90.33c-.11-.55-.1-1.11-.18-1.66-.02-.15-.02-.28-.1-.42-.11-.19-.29-.26-.5-.29-.18-.02-.33,0-.49.08-.21.11-.28.3-.39.5-.18.35-.35.7-.54,1.05-.12.23-.24.44-.35.67-.25.51-.51,1.16-.81,1.63-.02.11-.08.19-.04.33.06.13.28.17.41.13.13-.04.18-.22.23-.33.1-.26.28-.63.42-.88.14-.25.27-.51.4-.76.13-.27.26-.54.45-.77.19-.24.47-.41.67-.07.11.19.17.44.19.66.02.23.07.45.09.68.02.23.04.47.07.71.02.11.05.29.06.4.01.06.01.13.02.2,0,.05.02.11.03.17,0,.12,0,.25.1.36.09.1.26.14.39.09.29-.12.07-.62.04-.84-.05-.52-.05-1.12-.15-1.64"/>
  <path class="cls-1" d="m40.41,87.25c-.13.09-.14.27-.16.42-.02.13-.04.26-.08.39-.09.27-.16.54-.24.81-.08.31-.14.61-.22.92-.07.25-.16.5-.22.76-.04.15-.09.38-.14.53-.04.14-.11.28-.11.43,0,.24.44.42.57.18.05-.09.07-.22.09-.32.02-.06.04-.13.06-.19.04-.13.09-.33.12-.46.03-.11.06-.21.08-.31.03-.2.12-.39.14-.59.03-.26.12-.52.19-.77.03-.13.07-.26.1-.39.03-.16.1-.47.14-.6.02-.08.06-.15.08-.23-.01-.16.19-.33.07-.48-.11-.11-.34-.18-.47-.09"/>
  <polygon class="cls-1" points="40.88 87.33 40.88 87.33 40.89 87.34 40.88 87.33"/>
  <path class="cls-1" d="m37.8,87.99c-.12.29-.24.59-.35.9-.06.17-.14.32-.2.49-.04.1-.08.19-.15.29-.14.22-.35.41-.6.48-.34.1-.68-.08-.9-.33-.16-.18-.4-.45-.43-.71-.16-.42-.04-.87.11-1.27h0c.15-.4.35-.83.75-1.03.33-.15.69-.18,1.04-.15.3.03.63.19.77.46.15.28.07.58-.04.86m.48-1.41c-.22-.08-.44-.18-.64-.28-.28-.14-.58-.18-.89-.22-.15-.02-.27.03-.42.05-.09.01-.18.03-.27.06-.61.15-1.02.62-1.22,1.2-.17.33-.34.71-.36,1.08l.02-.02c-.02.24.07.52.14.75.06.26.21.43.36.66.14.22.28.38.49.52.28.19.59.36.91.48.14.05.27.1.41.15.24.07.43.01.57-.21.14-.24.2-.5.27-.75.07-.22.16-.46.25-.68.08-.21.16-.43.26-.63.14-.28.2-.58.35-.86.08-.15.13-.3.18-.44.06-.16.17-.39.14-.57-.04-.21-.36-.25-.53-.31"/>
  <path class="cls-1" d="m32.83,84.35c-.16-.14-.37-.27-.58-.31-.21-.04-.44-.05-.65-.03-.17.01-.36.04-.51.12-.17.1-.32.22-.45.35-.14.15-.29.31-.38.49-.11.21-.2.43-.33.63-.09.14-.14.28-.22.42-.08.13-.17.24-.24.37-.11.2-.2.4-.3.6-.06.11-.1.23-.15.34-.05.1-.08.17-.01.28.07.11.24.18.37.14.13-.03.21-.15.27-.26.1-.19.17-.39.26-.58.04-.08.09-.16.13-.23.12-.22.22-.45.36-.66.13-.19.22-.41.33-.61.16-.29.36-.59.64-.76.32-.19.69-.1.97.13.15.12.28.29.36.46.06.13.07.29.08.44.02.28-.06.57-.14.84-.06.2-.19.4-.28.59-.05.11-.12.21-.18.32-.05.09-.1.19-.15.29-.12.2-.22.4-.33.6-.06.11-.13.22-.18.34-.12.31.35.54.55.28.09-.11.16-.24.23-.37.05-.11.11-.22.16-.32.04-.08.06-.2.13-.25.07-.11.14-.22.19-.33h.02c.05-.11.08-.21.13-.32.16-.32.35-.62.43-.97.05-.2.07-.39.09-.59.01-.1.02-.2,0-.3-.01-.09-.01-.2-.04-.29-.1-.32-.33-.64-.57-.86"/>
  <path class="cls-1" d="m29.18,83.53c.04-.06.09-.14.12-.19.12-.18.24-.36.23-.58-.01-.3-.29-.45-.5-.61-.18-.13-.39-.22-.57-.35-.17-.12-.34-.23-.51-.35-.18-.13-.37-.28-.57-.4-.15-.09-.35-.05-.46.1-.12.18-.01.36.14.46.12.06.27.13.41.23.13.11.27.2.41.3.19.14.42.22.57.42.14.18.22.47.11.69-.07.15-.18.32-.32.39-.22.12-.46.04-.66-.09-.17-.11-.36-.22-.54-.3-.13-.06-.25-.01-.34.1-.1.12-.13.29,0,.4.12.11.28.19.42.29.17.11.35.23.4.44.05.19,0,.39-.11.56-.21.35-.54.49-.91.29-.19-.1-.38-.24-.57-.37-.22-.15-.44-.3-.66-.46-.1-.07-.21-.18-.33-.21-.26-.09-.46.24-.33.45.1.17.33.28.48.38.18.13.36.25.54.38.22.18.46.33.69.49.23.16.46.37.76.28.33-.1.48-.42.65-.68.17-.29.39-.53.57-.81.21-.33.43-.67.66-.99.06-.1.15-.17.2-.26"/>
  <path class="cls-1" d="m25.5,80.53c.11-.14.31-.31.32-.5.02-.25-.28-.44-.46-.58-.31-.26-.63-.51-.92-.79-.13-.13-.28-.25-.41-.37-.11-.11-.25-.28-.41-.3-.12-.02-.25.16-.29.26v.02c-.05.12.03.22.12.29.16.15.32.29.48.44.28.25.59.47.72.85.09.25.08.54-.07.77-.1.16-.25.29-.37.44-.14.19-.29.36-.45.53-.41.41-.85.81-1.18,1.28-.06.07-.1.15-.08.25.02.11.14.25.25.28.13.03.25-.08.33-.16.11-.12.22-.23.33-.36.07-.08.15-.13.21-.21.06-.08.12-.16.19-.24.1-.11.2-.22.31-.32.17-.19.33-.37.49-.56.3-.35.62-.66.91-1.02"/>
  <path class="cls-1" d="m19.82,73.76c-.13-.16-.25-.32-.38-.49-.13-.18-.27-.38-.42-.56-.12-.13-.31-.16-.46-.05-.17.13-.12.34,0,.48.1.09.22.21.31.34.09.14.2.27.3.41.14.19.33.34.41.58.07.22.07.51-.1.69-.11.12-.27.25-.43.27-.25.04-.45-.11-.6-.29-.13-.16-.27-.32-.43-.45-.1-.1-.24-.09-.36,0-.13.09-.22.24-.13.38.08.14.21.27.32.4.12.16.26.33.25.54-.01.19-.12.37-.27.5-.31.27-.66.3-.95,0-.15-.16-.29-.34-.43-.52-.17-.21-.32-.42-.48-.64-.08-.09-.15-.23-.25-.3-.22-.16-.51.08-.45.33.04.19.23.36.35.51.14.18.27.35.4.53.16.23.33.46.51.68.17.22.32.5.64.5.34,0,.59-.26.83-.45.25-.22.53-.38.79-.6.3-.25.62-.5.93-.74.09-.07.19-.12.27-.19.06-.04.12-.11.17-.14.17-.14.34-.27.4-.48.08-.28-.13-.52-.29-.73-.13-.18-.3-.33-.44-.51"/>
  <path class="cls-1" d="m14.6,71.55c.24-.16.47-.32.73-.45.53-.26,1.11-.62,1.62-.92.1-.06.23-.12.23-.26,0-.09-.06-.19-.13-.25-.16-.14-.33-.03-.48.06-.21.13-.48.28-.7.4-.23.13-.48.25-.71.38-.29.17-.58.35-.87.48-.19.09-.41.24-.62.25-.34.02-.53-.21-.7-.47-.14-.2-.22-.71-.56-.6-.22.07-.29.3-.17.49.14.22.25.47.38.69.27.44.56.88.8,1.34.07.13.13.27.2.4.03.07.09.13.13.2.05.07.07.15.13.22.17.17.54.05.56-.2.01-.13-.13-.28-.19-.38-.09-.14-.19-.27-.24-.44-.06-.19-.06-.43.06-.6.11-.17.38-.22.53-.33"/>
  <path class="cls-1" d="m13.47,64.01c.14-.22.2-.47.26-.72.04-.18.03-.35.03-.53,0-.09,0-.19,0-.28-.01-.11-.06-.19-.1-.29-.11-.27-.18-.54-.37-.77-.14-.17-.32-.32-.51-.43-.12-.07-.3-.18-.45-.17-.15,0-.27.16-.28.3h0c-.05.3.39.4.58.52.31.21.5.58.59.94.13.51-.25,1.13-.62,1.45-.59.5-1.6.66-2.27.23-.31-.19-.56-.48-.67-.83-.11-.34-.1-.63.04-.96.05-.12.13-.24.06-.37-.06-.11-.18-.16-.3-.14-.33.04-.41.46-.44.73-.05.39.02.77.17,1.12.11.26.27.44.47.64.53.53,1.28.78,2.03.68.69-.09,1.42-.49,1.79-1.11"/>
  <path class="cls-1" d="m8.39,58.4h-.01c-.04-.11-.05-.21-.08-.3-.02-.09-.06-.17-.08-.26-.03-.17.01-.35.06-.51.09-.33.32-.67.61-.85.31-.2.68-.32,1.04-.39.33-.07.66.02.94.2.59.34,1.04.99.87,1.7-.07.32-.23.65-.47.87-.24.22-.59.35-.91.39-.71.14-1.66-.11-1.97-.84m2.19,1.39c.3-.06.57-.14.83-.31.1-.07.22-.11.32-.19.09-.07.15-.18.21-.28.23-.39.51-.77.47-1.25-.03-.47-.15-.96-.43-1.37-.12-.18-.28-.35-.47-.46-.11-.06-.18-.15-.27-.22-.07-.06-.17-.09-.26-.11-.25-.07-.46-.16-.73-.17-.25,0-.51,0-.75.06-.24.06-.48.19-.71.3-.2.12-.4.24-.54.42-.29.39-.56.75-.64,1.23-.08.48.06,1,.33,1.41.11.18.24.39.4.53.1.08.22.12.32.19.09.05.17.11.27.15.23.11.52.16.78.18.29.04.57-.06.86-.11"/>
  <path class="cls-1" d="m8.18,53.85c.1-.01.2-.02.3-.03.15,0,.3,0,.45,0,.25,0,.49-.02.74-.03.46-.03.91-.02,1.37-.06.18-.01.44,0,.58-.12.19-.17.12-.51.1-.73-.03-.4-.07-.8-.08-1.21,0-.18-.01-.37-.02-.55,0-.15.02-.38-.08-.5-.07-.1-.3-.07-.4-.03h-.01c-.12.06-.13.19-.12.3,0,.22.02.43.02.65.01.38.07.75-.11,1.1-.12.24-.33.43-.6.49-.19.04-.38.02-.57.05-.23.03-.46.04-.7.04-.57,0-1.17-.05-1.74.04-.09.01-.18.04-.24.11-.06.09-.09.28-.03.37.07.11.23.12.34.12.16,0,.32,0,.48-.01.1,0,.2.02.3,0"/>
  <path class="cls-1" d="m7.73,48.76c.1,0,.19.04.29.04.1,0,.2,0,.3,0,.15.01.3.03.44.05.25.02.49.04.74.05.46.02.9.09,1.36.11.18,0,.43.06.59-.05.21-.14.18-.5.19-.72.02-.41.03-.81.07-1.21.02-.18.03-.37.05-.55.02-.15.07-.37-.01-.51-.06-.11-.28-.11-.39-.08h-.01c-.12.04-.15.17-.16.29-.02.22-.04.43-.06.65-.03.38-.02.75-.24,1.08-.15.22-.38.38-.65.41-.19.01-.38-.03-.57-.02-.24,0-.46-.01-.7-.04-.57-.08-1.15-.19-1.73-.17-.09,0-.18.02-.25.09-.07.08-.12.26-.07.37.05.12.21.15.33.16.16.02.32.03.48.04"/>
  <path class="cls-1" d="m8.48,43.83c.33.04.64.15.97.2.38.07.78.13,1.17.21.11.02.21.07.32.08.07.01.16.02.22.03.21.03.42.08.62-.02.26-.13.3-.44.37-.7.05-.22.05-.44.09-.66.04-.21.08-.41.12-.61.05-.22.11-.45.14-.68.02-.17-.09-.34-.27-.38-.21-.04-.33.13-.37.31,0,.14-.01.3-.05.46-.04.16-.08.33-.12.5-.05.23-.03.47-.16.69-.11.2-.34.39-.58.38-.16-.01-.36-.04-.49-.14-.2-.16-.22-.41-.18-.64.03-.2.06-.41.06-.62,0-.14-.09-.24-.23-.28-.15-.04-.32,0-.37.16-.05.15-.06.33-.09.5-.04.2-.08.41-.25.54-.15.12-.36.15-.55.12-.41-.05-.66-.3-.63-.71.02-.22.07-.44.11-.66.05-.26.11-.52.16-.78.02-.12.08-.27.07-.38-.02-.27-.4-.33-.55-.12-.12.15-.12.42-.15.6-.04.22-.09.43-.14.64-.07.27-.12.55-.18.83-.05.28-.16.57.05.81.22.26.58.27.88.32"/>
  <path class="cls-1" d="m10.17,39.47c.61.33,1.43.45,2.1.17.24-.1.44-.26.64-.43.14-.12.23-.26.34-.4.06-.07.12-.15.16-.23.05-.1.07-.18.09-.29.07-.28.18-.54.16-.84-.01-.22-.07-.45-.15-.65-.05-.13-.14-.32-.26-.4-.12-.08-.31-.03-.4.07h0c-.22.21.08.54.15.76.13.36.05.77-.09,1.11-.2.49-.87.76-1.36.79-.77.05-1.68-.42-1.96-1.17-.13-.34-.16-.72-.04-1.07.11-.34.3-.56.6-.75.12-.07.25-.11.27-.27.02-.12-.05-.24-.16-.29-.29-.16-.6.13-.79.32-.26.28-.44.63-.53,1-.06.27-.04.52,0,.79.11.74.56,1.39,1.23,1.75"/>
  <path class="cls-1" d="m10.77,33.62c.12-.06.16-.26.21-.37.07-.15.12-.31.23-.44.13-.16.32-.3.53-.3.2,0,.4.19.57.26.27.11.53.21.78.35.52.3,1.13.57,1.67.83.11.05.23.12.35.04.08-.05.13-.16.14-.25.03-.21-.16-.29-.32-.37-.22-.11-.5-.24-.72-.35-.24-.12-.47-.26-.72-.38-.3-.14-.61-.28-.89-.45-.18-.1-.43-.21-.56-.37-.21-.27-.12-.56,0-.84.09-.23.46-.58.18-.8-.18-.15-.41-.08-.5.13-.11.24-.25.47-.36.7-.21.47-.42.96-.66,1.42-.07.13-.14.26-.21.39-.04.07-.06.14-.09.22-.03.08-.09.15-.11.23-.04.24.26.47.48.35"/>
  <path class="cls-1" d="m13.23,28.52c.06.03.11.07.17.11.11.07.29.18.4.25.09.05.19.12.28.16.18.09.34.22.52.3.24.1.46.26.69.4.12.07.23.14.35.21.15.08.43.23.54.3.07.04.13.1.2.14.16.03.26.28.45.2.14-.07.26-.28.22-.43-.05-.15-.22-.21-.36-.27-.12-.06-.24-.11-.35-.19-.23-.16-.47-.31-.71-.46-.27-.17-.55-.31-.82-.47-.23-.13-.44-.29-.66-.43-.14-.08-.34-.19-.48-.28-.12-.08-.23-.19-.38-.23-.23-.07-.53.3-.33.49.07.08.19.13.28.18"/>
  <path class="cls-1" d="m16.83,30.6h0s0,0-.01,0h.01Z"/>
  <path class="cls-1" d="m15.18,26.8c.3.2.56.46.86.65.24.14.45.34.68.5.14.09.27.21.41.31.16.12.33.23.49.35.14.1.31.22.46.06.09-.1.17-.28.1-.4-.08-.17-.33-.25-.47-.36-.12-.09-.26-.18-.37-.29-.16-.16-.31-.37-.33-.59-.02-.19.11-.42.22-.59.08-.12.58-.8.64-.92.12-.21-.07-.47-.31-.48-.11,0-.16.06-.22.14-.08.12-.6.86-.68.97-.19.26-.43.53-.75.38-.35-.16-.49-.36-.58-.55-.12-.23.13-.6.29-.83.07-.09.13-.19.2-.28.11-.15.23-.31.34-.47.1-.14.34-.36.25-.55-.09-.16-.3-.18-.46-.12h.03c-.13.04-.22.2-.3.3-.1.15-.2.3-.31.45-.13.18-.25.36-.38.54-.12.16-.24.33-.35.48-.12.17-.25.31-.21.53.06.39.46.59.75.79"/>
  <path class="cls-1" d="m22.88,20.38c.04-.05.12-.12.17-.17.04-.04.07-.1.1-.16.03-.07.02-.13-.01-.21-.01-.02-.08-.1-.11-.11-.06-.04-.1-.04-.18-.04-.1.01-.17.08-.22.16-.03.04-.07.07-.1.11-.05.04-.1.08-.16.14-1.1,1.05-.3.32-.76.77-.11.11-.35.33-.48.46-.02.02-.04.05-.05.08-.06.1-.03.18.03.27.05.05.12.11.18.12.09,0,.16-.07.24-.12.06-.04.11-.09.15-.14,0-.02.02-.02.02-.02l.29-.27c.29-.3.35-.32.73-.69l.17-.16Z"/>
  <path class="cls-1" d="m57.92,59.89c-2.45,4.45-4.57,7.6-9.53,7.6-5.52,0-8.57-4.56-8.57-12.85,0-6,2.63-9.26,5.39-10.63v15.63h5.71v-15.6c.43.31.87.71,1.4,1.2,2.36,2.19,6.06,4.39,13.56,3.11v-5.79c-4.64,1.36-7.67.35-9.68-1.51-1.24-1.15-2.11-2.84-5.29-3.24v-5.31h14.96v-5.71h-20.67v11.08c-7.23,1.76-11.1,9.46-11.1,16.76,0,6.39,1.55,11.27,4.62,14.51,2.47,2.61,5.9,4.05,9.66,4.05,8.71,0,12.21-6.35,14.53-10.56l.11-.2-5-2.76-.11.21Z"/>
  <path class="cls-1" d="m62.67,52.09c-1.77,0-3.21,1.44-3.21,3.21s1.44,3.21,3.21,3.21,3.21-1.44,3.21-3.21-1.44-3.21-3.21-3.21"/>
  <path class="cls-1" d="m40.54,33.17c0-1.77-1.44-3.21-3.21-3.21s-3.21,1.44-3.21,3.21,1.44,3.21,3.21,3.21,3.21-1.44,3.21-3.21"/>
</svg>