<?xml version="1.0" encoding="UTF-8"?>
<svg id="Calque_1" data-name="Calque 1" xmlns="http://www.w3.org/2000/svg" viewBox="0 0 300 81">
  <defs>
    <style>
      .cls-1 {
        fill: #fbf7f3;
      }

      .cls-2 {
        fill: #fff76e;
      }
    </style>
  </defs>
  <path class="cls-1" d="m119.16,19.78c-2.21,0-4,1.75-4,3.91s1.79,3.91,4,3.91,4-1.75,4-3.91-1.79-3.91-4-3.91Z"/>
  <path class="cls-1" d="m82.68,27.6c2.21,0,4-1.75,4-3.91s-1.79-3.91-4-3.91-4,1.75-4,3.91,1.79,3.91,4,3.91Z"/>
  <g>
    <path class="cls-1" d="m267.13,47.88c-.06-.17-.13-.53-.13-1.15v-9.24c2.06-.34,3.83-.81,5.32-1.65,4.01-2.24,6.02-5.92,5.37-9.84-.58-3.51-3.23-6.39-6.44-7.02-2.88-.56-5.64.06-7.77,1.77-2.25,1.81-3.6,4.69-3.6,7.72v2.92c-2.75.34-5.83.81-9.08,1.67v-13.44h-7.07v15.94c-5.07,2.3-10.28,5.87-15.1,11.6-2.56,3.04-8.79,1.3-7.9-9.99.75-9.47,1.78-12.17,5.34-12.17,2.67,0,4.2,1.97,4.45,6.08l6.23-.23c0-4.34-1.78-11.93-10.67-11.93-4.64,0-12.53,2.35-13.34,18.07-.63,12.4,5.01,16.37,8.44,17.64,1.33.49,2.75.73,4.17.73,3.44,0,6.84-1.39,8.85-3.86,3.02-3.68,6.26-6.29,9.54-8.17v11.51h7.07v-14.55c3.17-.98,6.26-1.51,9.08-1.88v8.32c0,5.03,2.74,6.88,4.37,7.54,5.3,2.14,12.57-2.67,14.16-4.22l-5.03-4.92c-1.2,1.18-4.95,2.89-6.25,2.74Zm-.13-19.4c0-.94.39-1.86,1-2.35.14-.11.5-.4,1.22-.4.18,0,.39.02.62.06.21.07.78.64.86,1.47.1,1.17-.97,2.02-1.9,2.54-.42.24-1.04.43-1.79.6v-1.93Z"/>
    <path class="cls-1" d="m282.56,38.03c-2.21,0-4,1.75-4,3.91s1.79,3.91,4,3.91,4-1.75,4-3.91-1.79-3.91-4-3.91Z"/>
    <polygon class="cls-1" points="7.57 26.02 18.65 26.02 18.65 19.61 5.18 19.61 5.18 19.62 .5 19.62 .5 54.84 7.57 54.84 7.57 39.72 15.19 39.72 15.19 33.77 7.57 33.77 7.57 26.02"/>
    <path class="cls-1" d="m28.7,46.3h8.73l1.93,8.49h6.99l-8.25-35.19h-10.06l-8.34,35.19,7.04.05,1.95-8.54Zm4.37-19.12l2.9,12.74h-5.81l2.91-12.74Z"/>
    <polygon class="cls-1" points="99.79 19.61 92.72 19.61 92.72 54.83 97.42 54.83 97.42 54.84 110.47 54.84 110.47 48.2 99.79 48.2 99.79 19.61"/>
    <rect class="cls-1" x="115.63" y="31.08" width="7.07" height="23.76"/>
    <path class="cls-1" d="m145.55,42.23c-.38,3.87-1.92,6.11-4.52,6.11-4.96,0-5.04-9.96-5.04-11.64,0-2.02.34-10.88,4.72-10.88,2.84,0,4.2,2.68,4.46,5.07l6.55-.37c0-9.82-7.15-11.16-11.34-11.08-6.73.14-12.14,5.63-12.14,17.34,0,10.4,3.19,18.05,12.19,18.05,7.43,0,11.61-4.57,11.61-12.42l-6.47-.19Z"/>
    <path class="cls-1" d="m61.22,54.84c7.43,0,11.61-4.57,11.61-12.42l-6.47-.19c-.38,3.87-1.92,6.11-4.52,6.11-4.96,0-5.04-9.96-5.04-11.64,0-2.02.34-10.88,4.72-10.88,2.84,0,4.2,2.68,4.46,5.07l6.55-.37c0-9.82-7.15-11.16-11.34-11.08-6.73.14-12.14,5.63-12.14,17.34,0,10.4,3.19,18.05,12.19,18.05Z"/>
    <path class="cls-1" d="m169.15,19.78c-7.48,0-13.35,7.83-13.35,17.82s5.86,17.82,13.35,17.82,13.35-7.83,13.35-17.82-5.86-17.82-13.35-17.82Zm0,28.68c-2.95,0-6.23-4.46-6.23-10.87s3.28-10.87,6.23-10.87,6.23,4.46,6.23,10.87-3.28,10.87-6.23,10.87Z"/>
    <rect class="cls-1" x="79.15" y="31.08" width="7.07" height="23.76"/>
    <path class="cls-1" d="m192.65,19.6l-8.34,35.19,7.04.05,1.95-8.54h8.73l1.93,8.49h6.99l-8.25-35.19h-10.06Zm2.11,20.31l2.91-12.74,2.9,12.74h-5.81Z"/>
  </g>
  <g>
    <path class="cls-2" d="m124.33,80.58s0,0,0,0c0,0-.01,0-.02,0h.02Z"/>
    <path class="cls-2" d="m107.57,74.72v-.07c0-.19,0-.47-.16-.6-.13-.11-.34-.11-.49-.05-.24.1-.25.35-.26.58,0,.34,0,.68,0,1.02,0,.4-.04.8-.05,1.2,0,.22,0,.44,0,.66,0,.16-.02.32-.17.42-.38.24-.7-.29-.91-.53-.23-.26-.47-.51-.69-.79-.26-.33-.51-.69-.75-1.04-.18-.26-.36-.53-.54-.8-.13-.2-.29-.51-.52-.61-.23-.1-.55-.05-.67.19-.1.2-.08.53-.08.75,0,.27.02.55,0,.82,0,.17-.03.34-.04.51,0,.13,0,.27,0,.4-.04.34,0,.67.02,1,0,.43,0,.85,0,1.28,0,.39-.06.89-.04,1.28,0,.14.06.27.2.31.15.05.44.03.56-.07.09-.08.11-.23.11-.34,0-.17,0-.45,0-.62.03-.42.03-.87,0-1.29,0-.24,0-.48,0-.72,0-.28.03-.67.31-.82.34-.18.81.19,1.02.44.2.23.39.46.59.69.28.33.59.65.85,1.01.22.28.42.59.59.91.09.18.16.38.26.56.05.09.1.16.2.19.26.09.57,0,.64-.27.08-.34,0-.71-.02-1.05,0-.15,0-.29.02-.44.02-.22,0-.42,0-.64-.02-.29,0-.59,0-.88,0-.38-.02-.76,0-1.14.03-.48.08-.98.06-1.46Z"/>
    <path class="cls-2" d="m6.34,79.61c-.05-.12-.09-.25-.12-.38-.08-.3-.18-.59-.27-.88-.2-.63-.44-1.23-.65-1.86-.21-.6-.45-1.15-.75-1.7-.08-.13-.15-.26-.22-.41-.05-.09-.09-.21-.17-.28-.13-.12-.43-.1-.59-.06-.34.1-.48.55-.59.84-.48,1.36-.97,2.7-1.38,4.09-.08.25-.11.51-.2.75-.08.22-.37.67-.11.85.15.11.47.12.62,0,.11-.1.14-.29.18-.42.05-.16.08-.32.13-.48.09-.24.17-.54.45-.67.22-.09.43-.07.66-.09.19,0,.38,0,.57,0,.38.05.83-.09,1.17.15.17.12.27.37.35.56.07.16.15.35.18.52.03.14.06.31.18.41.17.12.51.11.67-.02.17-.13.09-.41.06-.59,0-.09-.13-.28-.16-.35Zm-1.55-1.57h0c-.22.29-.85.26-1.18.24-.2,0-.51-.03-.63-.21-.15-.26.02-.61.07-.87.05-.28.14-.6.25-.87.08-.21.23-.53.48-.55.5-.03.62.78.74,1.1.04.1.1.21.12.31.04.12.08.24.12.36.06.15.12.34.02.49Z"/>
    <path class="cls-2" d="m115.77,74.11c-.37,0-.74-.04-1.11-.04-.73,0-1.47.04-2.2,0-.21,0-.42-.03-.63-.04-.11,0-.22,0-.33,0-.11,0-.24-.03-.35,0-.33.09-.45.62-.16.82.15.11.43.05.6.05.24,0,.46-.03.7.03.28.07.57.24.69.5.12.26,0,.62,0,.88.02.41.05.8.02,1.21-.07.83-.05,1.78-.06,2.63,0,.17-.02.37.15.47.11.07.27.07.4.03.28-.09.27-.38.27-.63,0-.35,0-.79.02-1.14,0-.38.05-.76.05-1.14,0-.47,0-.95.05-1.4.02-.29,0-.67.14-.94.22-.43.64-.48,1.07-.5.34-.02,1.02.24,1.13-.25.08-.32-.15-.57-.47-.56Z"/>
    <path class="cls-2" d="m145.46,80.58s0,0,0,0c0,0-.01,0-.02,0h.02Z"/>
    <path class="cls-2" d="m142.08,76.34c-.09-.33-.34-.66-.54-.93-.21-.32-.48-.47-.79-.7-.28-.23-.55-.37-.89-.46-.47-.12-.96-.2-1.43-.21-.21,0-.42,0-.62,0-.36.02-.58.19-.66.54-.08.38-.03.76,0,1.12.02.33,0,.68,0,1.02,0,.32,0,.65-.05.96-.05.44,0,.86-.06,1.3-.03.23-.03.46-.03.67,0,.25-.04.6.08.82.15.27.6.16.84.16.33,0,.66.03.99.07.45.06.85-.03,1.28-.13.21-.05.35-.17.54-.27.11-.06.23-.13.33-.21.74-.49,1.06-1.31,1.06-2.17.07-.52.11-1.1-.03-1.61v.04Zm-1.28,2.92c-.36.35-.83.56-1.31.68-.41.1-.92.04-1.24-.25-.33-.3-.37-.73-.35-1.17.02-.45.04-.9.04-1.36,0-.25.03-.49.04-.74,0-.15.02-.29.06-.46.09-.36.27-.71.57-.93.41-.29.94-.22,1.35,0,.29.16.74.41.9.74.41.48.46,1.14.46,1.75h0c0,.6-.08,1.27-.51,1.72Z"/>
    <path class="cls-2" d="m133.76,74.72v-.07c0-.19,0-.47-.16-.6-.13-.11-.34-.11-.49-.05-.24.1-.25.35-.26.58,0,.34,0,.68,0,1.02,0,.4-.04.8-.05,1.2,0,.22,0,.44,0,.66,0,.16-.02.32-.17.42-.38.24-.7-.29-.91-.53-.23-.26-.48-.51-.69-.79-.27-.33-.51-.69-.75-1.04l-.54-.8c-.13-.2-.29-.51-.52-.61-.23-.1-.55-.05-.67.19-.1.2-.08.53-.08.75,0,.27.02.55,0,.82,0,.17-.03.34-.04.51,0,.13,0,.27,0,.4-.04.34,0,.67.02,1,0,.43,0,.85,0,1.28,0,.39-.06.89-.04,1.28,0,.14.06.27.2.31.15.05.44.03.56-.07.1-.08.11-.23.11-.34,0-.17,0-.45,0-.62.03-.42.03-.87,0-1.29,0-.24,0-.48,0-.72,0-.28.03-.67.31-.82.34-.18.81.19,1.02.44.2.23.39.46.59.69.28.33.59.65.85,1.01.22.28.42.59.59.91.09.18.16.38.26.56.05.09.1.16.2.19.26.09.57,0,.63-.27.08-.34,0-.71-.02-1.05,0-.15,0-.29.02-.44.02-.22,0-.42,0-.64-.02-.29,0-.59,0-.88,0-.38-.02-.76,0-1.14.03-.48.08-.98.06-1.46Z"/>
    <path class="cls-2" d="m124.29,74.26c-.04.14-.02.32-.02.46,0,.1,0,.19-.02.28,0,.19,0,.47,0,.66,0,.15,0,.31,0,.46.03.28-.03.57,0,.85.05.37,0,.75,0,1.12v.57c0,.24.02.68.02.87,0,.11-.03.23-.03.34.07.22-.16.52.07.69.19.11.53.12.68-.05.15-.17.09-.42.08-.63-.02-.19-.03-.37-.02-.56.03-.4.04-.8.05-1.2,0-.45-.02-.88-.02-1.33,0-.37.04-.74.04-1.11,0-.23,0-.55,0-.78,0-.21.06-.42,0-.63-.09-.33-.74-.43-.83-.05Z"/>
    <path class="cls-2" d="m23.08,79.07h0c-.38-.21-.7.33-.96.52-.43.32-1.01.4-1.53.35-.74-.07-1.39-.84-1.64-1.49-.4-1.02-.15-2.43.73-3.13.4-.32.9-.52,1.41-.51.5,0,.88.16,1.26.49.14.12.26.28.48.25.17-.03.29-.17.32-.33.1-.46-.43-.76-.77-.92-.49-.24-1.03-.32-1.58-.28-.39.03-.71.16-1.06.33-.95.46-1.63,1.35-1.83,2.39-.19.97,0,2.12.66,2.89.24.28.53.48.84.67.22.13.45.2.68.28.12.05.25.09.38.12.15.03.27,0,.43,0,.41-.03.8,0,1.2-.14.28-.1.57-.28.81-.47.15-.12.37-.32.43-.52.06-.2-.09-.43-.27-.5Z"/>
    <path class="cls-2" d="m65.45,77.18c-.13-.16-.26-.21-.44-.21-.18-.02-.36-.04-.55-.05-.26-.02-.59-.07-.84,0-.22.07-.34.34-.27.55.06.16.18.21.33.21.27,0,.56-.02.78.15.38.3.31.92.09,1.3-.15.27-.43.47-.69.62-.27.16-.59.29-.91.24-.26-.05-.49-.1-.75-.19-.13-.05-.24-.11-.33-.22-.11-.12-.26-.22-.37-.34-.1-.11-.25-.24-.32-.38-.06-.12-.09-.27-.11-.4-.07-.28-.08-.56-.1-.85-.02-.27-.04-.5.04-.77.05-.16.06-.35.13-.5.26-.55.71-1.07,1.31-1.25.33-.1.63-.15.97-.1.34.05.71.21.95.47.21.23.49.66.85.45.25-.15.25-.45.1-.66-.11-.17-.29-.29-.45-.44-.14-.13-.28-.26-.45-.37-.16-.1-.33-.14-.51-.21-.11-.04-.23-.09-.34-.11-.43-.08-.93,0-1.34.15-.28.1-.55.26-.8.44-.2.13-.43.28-.58.48-.13.17-.22.38-.31.57-.11.21-.28.45-.31.68-.03.24-.08.46-.12.69-.05.26,0,.56.06.81.06.3.06.65.15.94.09.27.27.56.47.77.23.25.48.46.77.63.21.12.43.27.66.34.69.2,1.52.12,2.13-.24.51-.3.94-.78,1.13-1.35.16-.47.16-1.07.08-1.56,0-.09-.08-.23-.13-.3Z"/>
    <path class="cls-2" d="m41.65,74.42c.05-.1-.05-.25-.11-.29v-.02c-.15-.09-.38-.1-.53-.05-.3.1-.42.46-.58.7-.17.27-.37.52-.56.78-.17.22-.34.44-.52.65-.18.2-.36.55-.67.54-.29,0-.56-.36-.73-.56-.16-.19-.34-.36-.49-.56-.28-.37-.52-.75-.77-1.14-.14-.23-.33-.45-.63-.42-.37.03-.43.37-.43.67,0,.27,0,.53-.03.8-.05.36.03.73.02,1.09,0,.2,0,.4,0,.6,0,.21-.06.41-.04.62.02.23.02.46.02.68v.77c0,.18,0,.58,0,.76,0,.18-.05.39.09.53.17.17.6.1.72-.1.15-.26.02-.89.03-1.19,0-.33,0-.66.02-1,0-.25,0-.48,0-.73,0-.16-.03-.33.02-.49.09-.3.39-.48.69-.39.2.07.35.22.48.38.1.14.21.25.34.36.21.18.32.39.63.43.37.04.55-.24.76-.5.14-.18.29-.36.45-.53.16-.17.4-.43.66-.26.24.15.27.5.27.76,0,.15,0,.3,0,.46-.02.19,0,.37,0,.56-.05.48-.04,1.2-.03,1.69,0,.19-.06.47.12.6.25.18.64.05.74-.23.08-.24,0-.73.03-.98.02-.25.02-.49.04-.74.04-.5.03-1.02.03-1.53,0-.41,0-.82,0-1.22,0-.29.02-.58,0-.87,0-.2-.06-.43-.02-.62Z"/>
    <path class="cls-2" d="m57.55,79.61c-.05-.12-.09-.25-.12-.38-.08-.3-.18-.59-.27-.88-.2-.63-.44-1.23-.65-1.86-.21-.6-.45-1.15-.75-1.7-.08-.13-.15-.26-.22-.41-.05-.09-.09-.21-.17-.28-.13-.12-.43-.1-.59-.06-.34.1-.48.55-.59.84-.48,1.36-.97,2.7-1.38,4.09-.08.25-.11.51-.2.75-.08.22-.37.67-.11.85.15.11.47.12.62,0,.11-.1.14-.29.18-.42.05-.16.08-.32.13-.48.09-.24.17-.54.45-.67.22-.09.43-.07.66-.09.19,0,.38,0,.57,0,.38.05.83-.09,1.17.15.17.12.27.37.35.56.07.16.15.35.18.52.03.14.06.31.18.41.17.12.51.11.67-.02.17-.13.09-.41.06-.59,0-.09-.13-.28-.16-.35Zm-1.55-1.57h0c-.22.29-.85.26-1.18.24-.2,0-.51-.03-.63-.21-.15-.26.02-.61.07-.87.05-.28.14-.6.25-.87.08-.21.23-.53.48-.55.5-.03.62.78.74,1.1.04.1.1.21.12.31.04.12.08.24.12.36.06.15.12.34.02.49Z"/>
    <path class="cls-2" d="m49.48,74.91c-.1-.12-.22-.3-.35-.4-.02-.02-.04-.03-.06-.04-.06-.04-.13-.09-.21-.12-.37-.24-.86-.31-1.29-.33-.38-.02-.76-.03-1.13-.04-.21,0-.44,0-.65.02-.16,0-.35.02-.48.12-.27.22-.25.52-.26.83-.02.69,0,1.4,0,2.1,0,.75.05,1.51,0,2.26-.02.34-.03.67-.02,1.02,0,.28.26.38.52.31.3-.08.25-.34.26-.59.02-.26.04-.5.09-.76.26-.66.73-.68.94-.68.26,0,.84-.02,1.09-.02s.66-.07,1.04-.34c.26-.19.51-.46.7-.86.13-.28.2-.63.21-.94.03-.29-.03-.55-.08-.83-.1-.23-.19-.53-.33-.7Zm-.8,2.49h.02c-.42.42-.79.37-1.22.39-.22,0-.59,0-.81,0-.31,0-.75-.2-.83-1.03v-.95c0-.61.48-.96,1.04-1.06.3-.06.64-.08.94,0,.08.02.31.08.48.14.21.11.46.27.59.47.13.21.14.56.16.81.03.45-.05.88-.38,1.22Z"/>
    <path class="cls-2" d="m31.86,75.33c-.46-.5-.89-.98-1.54-1.21-.64-.25-1.4-.18-2.03.08-.28.1-.61.23-.84.42-.13.11-.23.27-.35.39-.09.1-.2.21-.27.33-.21.28-.36.67-.46,1.03-.13.39-.08.81-.08,1.21s.04.84.21,1.23c.07.15.09.33.18.48.08.14.21.26.33.37.47.44.93.91,1.59,1s1.38.05,2.01-.23c.28-.12.56-.29.76-.52.11-.13.26-.21.37-.31.1-.09.17-.21.23-.32.16-.32.34-.6.43-.96.08-.34.13-.7.11-1.06-.02-.35-.13-.72-.23-1.06-.1-.3-.22-.62-.43-.86Zm-.8,3.6c-.64.72-1.65,1.17-2.58.75-.42-.18-.83-.49-1.08-.88-.24-.39-.33-.91-.29-1.37,0-1.03.6-2.27,1.69-2.51l.02-.02c.14-.03.28-.02.42-.03.13,0,.26-.04.38-.04.25,0,.48.11.69.22.43.22.84.63,1.02,1.07.2.48.26,1.03.26,1.55,0,.47-.2.9-.52,1.25Z"/>
    <path class="cls-2" d="m98.85,74.15c-.25-.12-.61-.06-.86-.06-.31,0-.62,0-.93-.02-.4-.03-.8-.03-1.2-.03s-.82-.08-1.11.27c-.3.37-.23.87-.22,1.31.03.47-.04.92-.03,1.4,0,.55.02,1.12,0,1.68,0,.16-.04.31-.03.47,0,.1,0,.23,0,.31,0,.3,0,.61.19.85.25.33.69.3,1.06.32.31,0,.63-.05.94-.05.29,0,.58,0,.87,0,.31.02.65.04.99.02.25-.02.45-.21.46-.47,0-.3-.26-.43-.53-.43-.19.03-.42.06-.65.05-.24-.02-.47-.02-.72-.03-.33,0-.66.08-1-.05-.3-.1-.63-.37-.67-.71-.03-.23-.04-.51.07-.71.17-.31.51-.41.84-.42.28,0,.59-.03.87-.08.2-.03.3-.19.32-.39.02-.22-.08-.45-.31-.47-.23-.03-.47,0-.72,0-.28,0-.59,0-.82-.2-.21-.18-.3-.46-.31-.73-.04-.58.24-1,.82-1.05.3-.03.63-.02.95-.02.38,0,.75,0,1.13.02.17,0,.39.04.55,0,.37-.1.35-.64.03-.79Z"/>
    <path class="cls-2" d="m14.56,79.07h0c-.38-.21-.7.33-.96.52-.43.32-1.01.4-1.53.35-.74-.07-1.38-.84-1.64-1.49-.4-1.02-.15-2.43.73-3.13.4-.32.9-.52,1.41-.51.5,0,.88.16,1.26.49.14.12.26.28.47.25.17-.03.29-.17.32-.33.09-.46-.43-.76-.77-.92-.49-.24-1.04-.32-1.58-.28-.39.03-.71.16-1.06.33-.95.46-1.63,1.35-1.83,2.39-.19.97,0,2.12.66,2.89.24.28.53.48.84.67.22.13.45.2.68.28.12.05.25.09.38.12.15.03.27,0,.43,0,.41-.03.8,0,1.2-.14.28-.1.57-.28.81-.47.15-.12.37-.32.43-.52.06-.2-.08-.43-.27-.5Z"/>
    <path class="cls-2" d="m74.22,74.72v-.07c0-.19,0-.47-.16-.6-.13-.11-.34-.11-.49-.05-.24.1-.25.35-.26.58,0,.34,0,.68,0,1.02,0,.4-.04.8-.05,1.2,0,.22,0,.44,0,.66,0,.16-.02.32-.17.42-.38.24-.7-.29-.91-.53-.23-.26-.47-.51-.69-.79-.27-.33-.51-.69-.75-1.04l-.54-.8c-.13-.2-.29-.51-.52-.61-.23-.1-.55-.05-.67.19-.1.2-.08.53-.08.75,0,.27.02.55,0,.82,0,.17-.03.34-.04.51,0,.13,0,.27,0,.4-.04.34,0,.67.02,1,0,.43,0,.85,0,1.28,0,.39-.06.89-.04,1.28,0,.14.06.27.2.31.15.05.44.03.56-.07.09-.08.11-.23.11-.34,0-.17,0-.45,0-.62.03-.42.03-.87,0-1.29,0-.24,0-.48,0-.72,0-.28.03-.67.31-.82.34-.18.81.19,1.02.44.2.23.39.46.59.69.28.33.59.65.85,1.01.22.28.42.59.59.91.09.18.16.38.26.56.05.09.1.16.2.19.26.09.57,0,.63-.27.08-.34,0-.71-.02-1.05,0-.15,0-.29.02-.44.02-.22,0-.42,0-.64-.02-.29,0-.59,0-.88,0-.38-.02-.76,0-1.14.03-.48.08-.98.06-1.46Z"/>
    <path class="cls-2" d="m91.2,74.42c.05-.1-.05-.25-.11-.29v-.02c-.15-.09-.38-.1-.53-.05-.3.1-.42.46-.58.7-.17.27-.37.52-.56.78-.17.22-.34.44-.52.65-.18.2-.36.55-.67.54-.29,0-.56-.36-.73-.56-.16-.19-.34-.36-.49-.56-.28-.37-.52-.75-.77-1.14-.14-.23-.33-.45-.63-.42-.37.03-.43.37-.43.67,0,.27,0,.53-.03.8-.05.36.03.73.02,1.09,0,.2,0,.4,0,.6,0,.21-.06.41-.04.62.02.23.02.46.02.68v.77c0,.18,0,.58,0,.76,0,.18-.05.39.09.53.17.17.6.1.72-.1.15-.26.02-.89.03-1.19,0-.33,0-.66.02-1,0-.25,0-.48,0-.73,0-.16-.03-.33.02-.49.08-.3.39-.48.69-.39.2.07.35.22.47.38.1.14.21.25.34.36.21.18.32.39.63.43.37.04.55-.24.76-.5.14-.18.29-.36.45-.53.16-.17.4-.43.65-.26.24.15.27.5.27.76,0,.15,0,.3,0,.46-.02.19,0,.37,0,.56-.05.48-.04,1.2-.03,1.69,0,.19-.06.47.12.6.25.18.64.05.74-.23.08-.24,0-.73.03-.98.02-.25.02-.49.04-.74.04-.5.03-1.02.03-1.53,0-.41,0-.82,0-1.22,0-.29.02-.58,0-.87,0-.2-.06-.43-.02-.62Z"/>
    <path class="cls-2" d="m145.42,74.26c-.04.14-.02.32-.02.46,0,.1,0,.19-.02.28,0,.19,0,.47,0,.66,0,.15,0,.31,0,.46.03.28-.03.57,0,.85.05.37,0,.75,0,1.12v.57c0,.24.02.68.02.87,0,.11-.03.23-.03.34.07.22-.16.52.07.69.19.11.53.12.68-.05.15-.17.09-.42.08-.63-.02-.19-.03-.37-.02-.56.03-.4.04-.8.05-1.2,0-.45-.02-.88-.02-1.33,0-.37.04-.74.04-1.11,0-.23,0-.55,0-.78,0-.21.06-.42,0-.63-.08-.33-.74-.43-.83-.05Z"/>
    <path class="cls-2" d="m81.8,74.15c-.25-.12-.61-.06-.86-.06-.31,0-.62,0-.93-.02-.4-.03-.8-.03-1.2-.03s-.82-.08-1.11.27c-.3.37-.23.87-.22,1.31.03.47-.04.92-.03,1.4,0,.55.02,1.12,0,1.68,0,.16-.04.31-.03.47,0,.1,0,.23,0,.31,0,.3,0,.61.19.85.25.33.69.3,1.06.32.31,0,.63-.05.94-.05.29,0,.58,0,.87,0,.31.02.65.04.99.02.25-.02.45-.21.46-.47,0-.3-.27-.43-.53-.43-.19.03-.42.06-.66.05-.24-.02-.47-.02-.72-.03-.33,0-.66.08-1-.05-.3-.1-.63-.37-.67-.71-.03-.23-.04-.51.07-.71.17-.31.51-.41.84-.42.28,0,.59-.03.87-.08.2-.03.3-.19.32-.39.02-.22-.08-.45-.31-.47-.23-.03-.47,0-.72,0-.28,0-.59,0-.82-.2-.21-.18-.3-.46-.31-.73-.04-.58.24-1,.83-1.05.3-.03.63-.02.95-.02.38,0,.75,0,1.13.02.17,0,.39.04.55,0,.37-.1.35-.64.03-.79Z"/>
    <path class="cls-2" d="m217.25,79.07h0c-.38-.21-.7.33-.96.52-.43.32-1.01.4-1.53.35-.74-.07-1.39-.84-1.64-1.49-.4-1.02-.15-2.43.73-3.13.4-.32.9-.52,1.41-.51.5,0,.88.16,1.26.49.14.12.26.28.47.25.17-.03.29-.17.32-.33.09-.46-.43-.76-.77-.92-.49-.24-1.03-.32-1.58-.28-.39.03-.71.16-1.06.33-.95.46-1.63,1.35-1.83,2.39-.19.97,0,2.12.66,2.89.24.28.53.48.84.67.22.13.45.2.68.28.12.05.25.09.38.12.15.03.27,0,.43,0,.41-.03.8,0,1.2-.14.28-.1.57-.28.81-.47.15-.12.37-.32.43-.52.06-.2-.09-.43-.27-.5Z"/>
    <path class="cls-2" d="m265.48,74.11c-.37,0-.74-.04-1.11-.04-.73,0-1.47.04-2.2,0-.21,0-.42-.03-.63-.04-.11,0-.22,0-.33,0-.11,0-.24-.03-.35,0-.33.09-.45.62-.16.82.15.11.43.05.6.05.24,0,.47-.03.7.03.27.07.57.24.69.5.12.26,0,.62,0,.88.02.41.05.8.02,1.21-.07.83-.05,1.78-.06,2.63,0,.17-.02.37.15.47.11.07.27.07.4.03.28-.09.27-.38.27-.63,0-.35,0-.79.02-1.14,0-.38.05-.76.05-1.14,0-.47,0-.95.05-1.4.02-.29,0-.67.14-.94.22-.43.64-.48,1.07-.5.34-.02,1.02.24,1.13-.25.08-.32-.15-.57-.46-.56Z"/>
    <path class="cls-2" d="m203.71,79.9l-.1-.11c-.11-.06-.21-.21-.28-.32l-.04-.07c-.05-.09-.07-.19-.07-.29s.04-.27.12-.3l.05-.09.21-.23c.06-.07.08-.14.08-.22,0-.12-.17-.37-.38-.37s-.33.27-.65.27c-.24,0-.47-.13-.68-.37l-.24-.27-.1-.11c-.09-.09-.14-.22-.14-.39,0-.16.05-.32.1-.41.34-.56.44-.9.44-1.3v-.08c-.06-.18-.08-.44-.22-.6l-.12-.14c-.22-.26-.64-.48-.95-.48-.13,0-.25-.03-.38-.03s-.33.02-.48.04l-.08.04c-.24.18-.46.36-.58.56-.03.05-.06.09-.09.13l-.08.13c-.04.18-.16.5-.16.77,0,.21.38.92.38,1.23,0,.18-.06.34-.15.54l-.26.28s-.07.08-.08.11l-.14.29c-.1.14-.21.36-.21.53,0,1.12.44,1.62,1.47,2.02l.09.04c.17.02.35.07.52.07.36,0,.88-.33,1-.36.09-.03.46-.28.46-.28h0c.08,0,.26-.18.46-.18.14,0,.28.06.4.13l.1.12c.22.22.31.54.83.54.17,0,.3-.27.3-.34v-.07l-.03-.05c-.08-.15-.22-.25-.31-.39Zm-4.09-4.58c0-.25.46-.64.68-.64.3,0,.55.06.59.07l.1.06c.17.05.27.43.27.47,0,.78-.44,1.08-.79,1.08-.6,0-.89-.58-.89-.89,0-.06,0-.1.03-.14Zm1.71,4.29l-.14.11c-.16.13-.43.23-.62.24-.05,0-.1,0-.15,0s-.12,0-.19,0c-.03,0-.06,0-.09,0l-.1-.04c-.19-.13-.54-.26-.59-.42l-.07-.08c-.06-.09-.07-.16-.1-.25l-.04-.07s-.02-.06-.02-.08c0-.2.06-.43.19-.63.1-.11.34-.54.47-.65.19-.14.35-.22.53-.22.24,0,.47.13.68.41l.08.1c.24.3.48.65.48.92,0,.29-.19.51-.34.65Z"/>
    <path class="cls-2" d="m190.47,80.01c-.06-.17-.24-.2-.4-.2-.3,0-.61,0-.91-.02-.53,0-1.06.04-1.55-.24-.32-.19-.58-.5-.64-.88-.04-.27,0-.54-.02-.81-.02-.33-.03-.65,0-.99.06-.81.16-1.64.08-2.45,0-.13-.04-.26-.14-.34-.12-.09-.38-.14-.52-.07-.16.08-.19.31-.2.47,0,.23-.02.46-.02.68,0,.14-.04.28-.03.42,0,.14.02.28.02.43,0,.21-.02.42-.03.63,0,.35,0,.69,0,1.04,0,.65-.05,1.28-.03,1.93,0,.26-.04.62.12.82.22.28.71.21,1.02.2.57,0,1.14-.04,1.71-.02.26,0,.52,0,.78.02.22,0,.53.07.71-.07.14-.09.12-.41.08-.55l-.02-.02Z"/>
    <path class="cls-2" d="m226.04,75.33c-.46-.5-.89-.98-1.54-1.21-.64-.25-1.4-.18-2.03.08-.27.1-.61.23-.84.42-.13.11-.23.27-.35.39-.09.1-.2.21-.27.33-.21.28-.36.67-.45,1.03-.13.39-.08.81-.08,1.21s.04.84.21,1.23c.07.15.09.33.18.48.08.14.21.26.33.37.48.44.93.91,1.59,1,.66.09,1.38.05,2.01-.23.28-.12.56-.29.76-.52.11-.13.26-.21.37-.31.1-.09.17-.21.23-.32.16-.32.34-.6.43-.96.08-.34.13-.7.11-1.06-.02-.35-.13-.72-.23-1.06-.1-.3-.22-.62-.43-.86Zm-.8,3.6c-.64.72-1.65,1.17-2.58.75-.42-.18-.83-.49-1.08-.88-.24-.39-.33-.91-.29-1.37,0-1.03.6-2.27,1.69-2.51l.02-.02c.14-.03.28-.02.42-.03.13,0,.26-.04.38-.04.25,0,.48.11.69.22.43.22.83.63,1.02,1.07.2.48.26,1.03.27,1.55,0,.47-.2.9-.52,1.25Z"/>
    <path class="cls-2" d="m249.34,74.15c-.25-.12-.61-.06-.86-.06-.31,0-.62,0-.93-.02-.4-.03-.8-.03-1.2-.03s-.83-.08-1.11.27c-.3.37-.23.87-.22,1.31.03.47-.04.92-.03,1.4,0,.55.02,1.12,0,1.68,0,.16-.04.31-.03.47,0,.1,0,.23,0,.31,0,.3,0,.61.19.85.25.33.69.3,1.06.32.31,0,.63-.05.94-.05.29,0,.58,0,.87,0,.31.02.66.04.99.02.25-.02.45-.21.46-.47,0-.3-.27-.43-.53-.43-.19.03-.42.06-.65.05-.24-.02-.48-.02-.72-.03-.33,0-.66.08-1-.05-.3-.1-.63-.37-.67-.71-.03-.23-.04-.51.07-.71.17-.31.51-.41.84-.42.28,0,.59-.03.87-.08.2-.03.3-.19.32-.39.02-.22-.08-.45-.31-.47-.23-.03-.48,0-.72,0-.28,0-.59,0-.82-.2-.21-.18-.3-.46-.31-.73-.04-.58.24-1,.83-1.05.3-.03.63-.02.95-.02.38,0,.75,0,1.13.02.17,0,.39.04.55,0,.37-.1.35-.64.03-.79Z"/>
    <path class="cls-2" d="m182.74,74.15c-.25-.12-.61-.06-.86-.06-.31,0-.62,0-.93-.02-.4-.03-.8-.03-1.2-.03s-.82-.08-1.11.27c-.3.37-.23.87-.22,1.31.03.47-.04.92-.03,1.4,0,.55.02,1.12,0,1.68,0,.16-.04.31-.03.47,0,.1,0,.23,0,.31,0,.3,0,.61.19.85.25.33.69.3,1.06.32.31,0,.63-.05.94-.05.29,0,.58,0,.87,0,.31.02.65.04.99.02.25-.02.45-.21.46-.47,0-.3-.27-.43-.53-.43-.19.03-.42.06-.65.05-.24-.02-.47-.02-.72-.03-.33,0-.66.08-1-.05-.3-.1-.63-.37-.67-.71-.03-.23-.04-.51.07-.71.17-.31.51-.41.84-.42.28,0,.59-.03.87-.08.2-.03.3-.19.32-.39.02-.22-.08-.45-.31-.47-.23-.03-.47,0-.72,0-.28,0-.59,0-.82-.2-.21-.18-.3-.46-.31-.73-.04-.58.24-1,.83-1.05.3-.03.63-.02.95-.02.38,0,.75,0,1.13.02.17,0,.39.04.55,0,.37-.1.35-.64.03-.79Z"/>
    <path class="cls-2" d="m241.8,80.01c-.06-.17-.24-.2-.4-.2-.3,0-.61,0-.91-.02-.53,0-1.06.04-1.55-.24-.32-.19-.58-.5-.64-.88-.04-.27,0-.54-.02-.81-.02-.33-.03-.65,0-.99.06-.81.16-1.64.08-2.45,0-.13-.04-.26-.14-.34-.12-.09-.38-.14-.52-.07-.16.08-.19.31-.2.47,0,.23-.02.46-.02.68,0,.14-.04.28-.03.42,0,.14.02.28.02.43,0,.21-.02.42-.03.63,0,.35,0,.69,0,1.04,0,.65-.05,1.28-.03,1.93,0,.26-.04.62.12.82.22.28.71.21,1.02.2.57,0,1.14-.04,1.71-.02.26,0,.52,0,.78.02.22,0,.53.07.71-.07.14-.09.12-.41.08-.55l-.02-.02Z"/>
    <path class="cls-2" d="m234.16,80.01c-.06-.17-.24-.2-.4-.2-.3,0-.61,0-.91-.02-.53,0-1.06.04-1.55-.24-.32-.19-.58-.5-.64-.88-.04-.27,0-.54-.02-.81-.02-.33-.03-.65,0-.99.06-.81.16-1.64.08-2.45,0-.13-.04-.26-.14-.34-.12-.09-.38-.14-.52-.07-.16.08-.19.31-.2.47,0,.23-.02.46-.02.68,0,.14-.04.28-.03.42,0,.14.02.28.02.43,0,.21-.02.42-.03.63,0,.35,0,.69,0,1.04,0,.65-.05,1.28-.03,1.93,0,.26-.04.62.12.82.22.28.71.21,1.02.2.57,0,1.14-.04,1.71-.02.26,0,.52,0,.78.02.22,0,.53.07.71-.07.14-.09.12-.41.08-.55l-.02-.02Z"/>
    <path class="cls-2" d="m269.24,74.26c-.04.14-.02.32-.02.46,0,.1,0,.19-.02.28,0,.19,0,.47,0,.66,0,.15,0,.31,0,.46.03.28-.03.57,0,.85.05.37,0,.75,0,1.12v.57c0,.24.02.68.02.87,0,.11-.03.23-.03.34.07.22-.16.52.07.69.19.11.53.12.68-.05.15-.17.09-.42.08-.63-.02-.19-.03-.37-.02-.56.03-.4.04-.8.05-1.2,0-.45-.02-.88-.02-1.33,0-.37.04-.74.04-1.11,0-.23,0-.55,0-.78,0-.21.06-.42,0-.63-.08-.33-.74-.43-.83-.05Z"/>
    <path class="cls-2" d="m157.9,74.26c-.04.14-.02.32-.02.46,0,.1,0,.19-.02.28,0,.19,0,.47,0,.66,0,.15,0,.31,0,.46.03.28-.03.57,0,.85.05.37,0,.75,0,1.12v.57c0,.24.02.68.02.87,0,.11-.03.23-.03.34.07.22-.16.52.07.69.19.11.53.12.68-.05.15-.17.09-.42.08-.63-.02-.19-.03-.37-.02-.56.03-.4.04-.8.05-1.2,0-.45-.02-.88-.02-1.33,0-.37.04-.74.04-1.11,0-.23,0-.55,0-.78,0-.21.06-.42,0-.63-.09-.33-.74-.43-.83-.05Z"/>
    <path class="cls-2" d="m157.94,80.58s0,0,0,0c0,0-.01,0-.02,0h.02Z"/>
    <path class="cls-2" d="m269.28,80.58s0,0,0,0c0,0-.01,0-.02,0h.02Z"/>
    <path class="cls-2" d="m167.02,76.34c-.1-.33-.34-.66-.54-.93-.21-.32-.48-.47-.79-.7-.28-.23-.55-.37-.89-.46-.47-.12-.96-.2-1.43-.21-.21,0-.42,0-.62,0-.36.02-.58.19-.66.54-.08.38-.03.76,0,1.12.02.33,0,.68,0,1.02,0,.32,0,.65-.05.96-.05.44,0,.86-.06,1.3-.03.23-.03.46-.03.67,0,.25-.04.6.08.82.15.27.6.16.84.16.33,0,.66.03.99.07.45.06.85-.03,1.28-.13.21-.05.35-.17.54-.27.11-.06.23-.13.33-.21.74-.49,1.06-1.31,1.06-2.17.07-.52.11-1.1-.03-1.61v.04Zm-1.28,2.92c-.36.35-.83.56-1.31.68-.41.1-.92.04-1.24-.25-.33-.3-.37-.73-.35-1.17.02-.45.04-.9.04-1.36,0-.25.03-.49.04-.74,0-.15.02-.29.06-.46.08-.36.26-.71.57-.93.41-.29.94-.22,1.35,0,.29.16.74.41.9.74.41.48.47,1.14.46,1.75h0c0,.6-.08,1.27-.51,1.72Z"/>
    <path class="cls-2" d="m154.01,74.07c-.18.09-.21.34-.25.51-.09.39-.26.94-.4,1.31-.14.38-.27.77-.39,1.15-.13.41-.25.81-.47,1.18-.22.37-.57.67-.91.25-.2-.25-.33-.58-.41-.88-.08-.31-.19-.62-.26-.93-.08-.32-.16-.65-.25-.97-.05-.15-.13-.4-.17-.55-.03-.09-.05-.18-.07-.27-.02-.08-.06-.15-.08-.24-.04-.17-.06-.34-.21-.48-.14-.12-.39-.14-.56-.04-.37.23.04.88.12,1.18.19.71.31,1.56.56,2.25.27.74.38,1.53.61,2.28.06.2.09.39.23.56.19.25.46.3.76.29.26,0,.47-.07.66-.22.26-.2.33-.47.44-.78.18-.52.34-1.05.52-1.58.11-.34.25-.66.35-1.01.24-.76.46-1.73.78-2.45,0-.15.07-.29-.02-.47-.11-.16-.43-.18-.6-.09Z"/>
    <path class="cls-2" d="m257.34,79.07h0c-.38-.21-.7.33-.96.52-.43.32-1.01.4-1.53.35-.74-.07-1.38-.84-1.64-1.49-.4-1.02-.15-2.43.73-3.13.4-.32.9-.52,1.41-.51.5,0,.88.16,1.26.49.14.12.26.28.48.25.17-.03.29-.17.32-.33.1-.46-.43-.76-.77-.92-.49-.24-1.03-.32-1.58-.28-.39.03-.71.16-1.06.33-.95.46-1.63,1.35-1.83,2.39-.19.97,0,2.12.66,2.89.24.28.53.48.84.67.22.13.45.2.68.28.12.05.25.09.38.12.15.03.27,0,.43,0,.41-.03.8,0,1.2-.14.28-.1.57-.28.81-.47.15-.12.37-.32.43-.52.06-.2-.09-.43-.27-.5Z"/>
    <path class="cls-2" d="m277.51,74.16l.02.03c-.16-.11-.41-.09-.59-.09-.26,0-.5.02-.76.02h-1.77c-.29,0-.56-.03-.78.2-.4.39-.29,1.01-.28,1.51,0,.51-.07,1.02-.03,1.52.03.39-.02.79,0,1.18,0,.24-.02.48-.02.73v.84c0,.25,0,.54.31.58.18.02.45-.04.54-.22.12-.23.02-.58.02-.83,0-.22,0-.45.03-.66.05-.31.17-.65.41-.86.2-.18.57-.22.85-.24.21,0,1.39,0,1.58-.02.33-.04.48-.46.29-.75-.09-.12-.2-.13-.34-.13-.2,0-1.47.02-1.67.02-.45,0-.96-.06-1.04-.54-.09-.53,0-.85.15-1.12.17-.32.8-.34,1.19-.35h1.31c.24,0,.69.08.83-.17.1-.23-.04-.49-.24-.62Z"/>
    <path class="cls-2" d="m175.06,74.04c-.16-.1-.42-.07-.56.06-.14.12-.17.32-.17.49,0,.3.04.6.04.9,0,.12,0,.25,0,.37,0,.35,0,.71-.04,1.06-.04.32,0,.65-.03.98-.02.46-.08.97-.32,1.37-.28.45-.81.57-1.3.46-.27-.06-.53-.18-.74-.35-.16-.13-.27-.32-.38-.5-.2-.34-.29-.75-.36-1.14-.05-.29-.02-.62-.03-.92,0-.17.02-.34.02-.51,0-.15,0-.3,0-.46.02-.32.02-.65.04-.97,0-.18.03-.36,0-.54-.06-.47-.79-.45-.87,0-.04.2-.05.41-.05.61v.51c0,.12.05.28,0,.4,0,.18-.04.36-.03.54l-.03.02c0,.16.04.31.04.47,0,.5-.04,1,.08,1.49.07.27.16.54.27.81.05.13.1.26.19.37.08.1.14.25.24.33.33.33.82.59,1.26.71.29.08.64.1.92.02.29-.09.58-.22.83-.38.2-.12.43-.27.56-.47.15-.23.26-.47.34-.73.09-.27.16-.58.16-.86,0-.34-.02-.66.02-1.01.03-.23,0-.45,0-.67.02-.21.06-.42.07-.63,0-.31,0-.63,0-.94,0-.18-.02-.35-.03-.53,0-.16,0-.27-.16-.35Z"/>
    <path class="cls-2" d="m283.27.22c-8.83,0-15.96,6.75-16.22,15.38v.42s1.17.06,1.17.06v-.44c.25-7.86,7-14.26,15.05-14.26s15.05,6.59,15.05,14.7-6.75,14.7-15.05,14.7c-.84,0-1.71-.07-2.57-.22l-.41-.07-.27,1.13.46.08c.94.16,1.87.24,2.79.24,8.95,0,16.23-7.11,16.23-15.86S292.22.22,283.27.22Z"/>
    <path class="cls-2" d="m280.03,18.06c.53.13,1.08.67,1.22,1.21l.94,3.6c.13.48.57.82,1.08.82s.95-.34,1.08-.82l.94-3.6c.14-.53.69-1.07,1.22-1.21l3.7-.93c.49-.12.83-.56.83-1.05s-.34-.93-.83-1.05l-3.7-.93c-.53-.13-1.08-.67-1.22-1.21l-.94-3.6c-.13-.48-.57-.82-1.08-.82s-.95.33-1.08.82l-.94,3.6c-.14.53-.69,1.07-1.22,1.21l-3.7.93c-.49.12-.84.56-.84,1.05s.34.93.84,1.05l3.7.93Zm3.24-3.45c.83,0,1.51.66,1.51,1.47s-.67,1.47-1.51,1.47-1.51-.66-1.51-1.47.68-1.47,1.51-1.47Z"/>
  </g>
</svg>